<?xml version="1.0" encoding="UTF-8"?>
<svg width="124px" height="108px" viewBox="0 0 124 108" version="1.1" xmlns="http://www.w3.org/2000/svg" xmlns:xlink="http://www.w3.org/1999/xlink">
    <!-- Generator: Sketch 55.1 (78136) - https://sketchapp.com -->
    <title>001-repair</title>
    <desc>Created with Sketch.</desc>
    <g id="Page-1" stroke="none" stroke-width="1" fill="none" fill-rule="evenodd" fill-opacity="0.186024913">
        <g id="Pitstop-Brakes-Booking-Select-Date-Order-Part-Copy" transform="translate(-56.000000, -61.000000)" fill="#FFFFFF" fill-rule="nonzero">
            <g id="Group-12" transform="translate(25.500000, 30.500000)">
                <g id="001-repair" transform="translate(92.500000, 84.500000) rotate(-360.000000) translate(-92.500000, -84.500000) translate(31.000000, 31.000000)">
                    <path d="M109.818827,0 L109.818827,56.4086397 L98.8879982,56.4086397 L98.8879982,47.0879761 C100.851809,44.2291869 101.905863,40.6475651 101.905863,36.6976032 C101.905863,30.4012049 99.3023362,24.9854991 94.3701328,22.1391725 C92.9635822,10.6084689 86.6495648,2.15188104 78.8431058,2.15188104 L44.1568942,2.15188104 C36.3463124,2.15188104 30.032295,10.6084689 28.6223087,22.1391725 C23.6901054,24.9813449 21.0865781,30.4018972 21.0865781,36.6976032 C21.0865781,40.6468727 22.1523133,44.2291869 24.1085662,47.0879761 L24.1085662,56.4079474 L13.1777371,56.4079474 L13.1777371,0 L0,0 L0,107 L13.1811727,107 L13.1811727,63.0436063 L50.6179569,63.0436063 L50.6179569,56.4086397 L40.5900137,56.4086397 L40.5900137,53.3968371 L82.414109,53.3968371 L82.414109,56.4086397 L72.3813559,56.4086397 L72.3813559,63.0436063 L109.822263,63.0436063 L109.822263,107 L123,107 L123,0 C123,0 109.818827,0 109.818827,0 Z M35.0510765,42.1223098 C32.0785616,42.1223098 29.6715529,39.6969432 29.6715529,36.6982956 C29.6715529,33.699648 32.0826844,31.2701272 35.0510765,31.2701272 C38.0400825,31.2701272 40.4381585,33.699648 40.4381585,36.6982956 C40.4381585,39.6969432 38.0277142,42.1223098 35.0510765,42.1223098 Z M36.9819056,19.9955999 C35.9038021,19.9955999 34.9239579,20.1236881 33.9599175,20.2725473 C35.5093907,12.7001139 39.5524508,7.12654812 44.1651397,7.12654812 L78.8554741,7.12654812 C83.4681631,7.12654812 87.4981677,12.6994215 89.048328,20.2725473 C88.5439762,20.1901554 87.9867155,20.1652302 87.4452588,20.1236881 C87.4452588,20.0779917 87.4576271,20.037142 87.4576271,19.9914457 C87.4576271,15.2071799 83.6035273,11.3119152 78.8437929,11.3119152 C74.0957398,11.3119152 70.2340815,15.2037181 70.2340815,19.9914457 L36.9819056,19.9955999 L36.9819056,19.9955999 Z M77.1376546,41.5234111 L45.8499771,41.5234111 C44.93541,41.5234111 44.2056803,40.7798074 44.2056803,39.8624193 C44.2056803,38.9450311 44.9436555,38.2014274 45.8499771,38.2014274 L77.1369675,38.2014274 C78.0556574,38.2014274 78.7854044,38.9450311 78.7854044,39.8624193 C78.7895098,40.7798074 78.0556574,41.5234111 77.1376546,41.5234111 Z M77.1376546,36.772379 L45.8499771,36.772379 C44.93541,36.772379 44.2056803,36.0287753 44.2056803,35.1113872 C44.2056803,34.193999 44.9436555,33.4503954 45.8499771,33.4503954 L77.1369675,33.4503954 C78.0556574,33.4503954 78.7854044,34.193999 78.7854044,35.1113872 C78.7895098,36.0287753 78.0556574,36.772379 77.1376546,36.772379 Z M73.537792,19.9955999 C73.537792,17.0419562 75.9241869,14.6373607 78.8554741,14.6373607 C81.7867613,14.6373607 84.1731562,17.0419562 84.1731562,19.9955999 L73.537792,19.9955999 Z M87.9489235,42.1223098 C84.9681631,42.1223098 82.5618415,39.6969432 82.5618415,36.6982956 C82.5618415,33.699648 84.9805314,31.2701272 87.9489235,31.2701272 C90.9173156,31.2701272 93.3284943,33.699648 93.3284943,36.6982956 C93.3408154,39.6976356 90.9214384,42.1223098 87.9489235,42.1223098 Z" id="Shape"></path>
                </g>
            </g>
        </g>
    </g>
</svg>