<?xml version="1.0" encoding="UTF-8"?>
<svg width="101px" height="96px" viewBox="0 0 101 96" version="1.1" xmlns="http://www.w3.org/2000/svg" xmlns:xlink="http://www.w3.org/1999/xlink">
    <!-- Generator: Sketch 55.1 (78136) - https://sketchapp.com -->
    <title>002-car</title>
    <desc>Created with Sketch.</desc>
    <g id="Page-1" stroke="none" stroke-width="1" fill="none" fill-rule="evenodd" fill-opacity="0.186024913">
        <g id="Pitstop-Brakes-Booking-Select-Date-Order-Part-Copy" transform="translate(-70.000000, -284.000000)" fill="#FFFFFF" fill-rule="nonzero">
            <g id="Group-11" transform="translate(25.500000, 251.500000)">
                <g id="002-car" transform="translate(95.000000, 80.500000) rotate(-360.000000) translate(-95.000000, -80.500000) translate(45.000000, 33.000000)">
                    <polygon id="Path" points="85.9375 8.08091286 85.9375 0 14.0625 0 14.0625 8.08091286 0 8.08091286 0 95 8.0078125 95 8.0078125 16.1618257 14.0625 16.1618257 14.0625 24.2427386 85.9375 24.2427386 85.9375 16.1618257 91.9921875 16.1618257 91.9921875 95 100 95 100 8.08091286"></polygon>
                    <path d="M78.7692308,60.625 L67.9461538,41.5091463 C67.4077462,40.5030488 66.6000538,40 65.5230769,40 L35.4769231,40 C34.3999462,40 33.5922538,40.5030488 33.0538462,41.5091463 L22.2307692,60.625 C21.3692846,60.625 20.6153846,60.9603659 19.9692308,61.6310976 C19.3230769,62.3018293 19,63.0844055 19,63.9786585 L19,81.25 C19,82.144253 19.3230769,82.9268293 19.9692308,83.597561 C20.6153846,84.2682927 21.3692846,84.6036585 22.2307692,84.6036585 L25.6230769,84.6036585 L25.6230769,89.8018293 C25.6230769,91.2551372 26.0807154,92.4847561 26.9961538,93.4908537 C27.9115923,94.4969512 29.0153846,95 30.3076923,95 L31.9230769,95 C33.3231308,95 34.5616462,94.4689482 35.6384615,93.4070122 C36.7154385,92.3450762 37.2538462,91.1432927 37.2538462,89.8018293 L37.2538462,84.6036585 L63.7461538,84.6036585 L63.7461538,89.8018293 C63.7461538,91.1432927 64.2845615,92.3450762 65.3615385,93.4070122 C66.4385154,94.4689482 67.6768692,95 69.0769231,95 L70.6923077,95 C71.9846154,95 73.0884077,94.4969512 74.0038462,93.4908537 C74.9192846,92.4847561 75.3769231,91.2551372 75.3769231,89.8018293 L75.3769231,84.6036585 L78.7692308,84.6036585 C79.6307154,84.6036585 80.3846154,84.2682927 81.0307692,83.597561 C81.6769231,82.9268293 82,82.144253 82,81.25 L82,63.9786585 C82,63.0844055 81.6769231,62.3018293 81.0307692,61.6310976 C80.3846154,60.9603659 79.6307154,60.625 78.7692308,60.625 Z M30.88,72.8235294 C30.13328,73.6078431 29.2,74 28.08,74 C26.96,74 26,73.6078431 25.2,72.8235294 C24.4,72.0392157 24,71.0980392 24,70 C24,68.9019608 24.4,67.9607843 25.2,67.1764706 C26,66.3921569 26.96,66 28.08,66 C29.2,66 30.13344,66.3921569 30.88,67.1764706 C31.62672,67.9607843 32,68.9019608 32,70 C32,71.0980392 31.62672,72.0392157 30.88,72.8235294 Z M31,61 L38.36,46.5652174 C38.78672,45.5217391 39.53344,45 40.6,45 L61.4,45 C62.46672,45 63.21328,45.5217391 63.64,46.5652174 L71,61 L31,61 Z M75.8,72.8235294 C75,73.6078431 74.04,74 72.92,74 C71.8,74 70.86672,73.6078431 70.12,72.8235294 C69.37328,72.0392157 69,71.0980392 69,70 C69,68.9019608 69.37328,67.9607843 70.12,67.1764706 C70.86672,66.3921569 71.8,66 72.92,66 C74.04,66 75,66.3921569 75.8,67.1764706 C76.6,67.9607843 77,68.9019608 77,70 C77,71.0980392 76.6,72.0392157 75.8,72.8235294 Z" id="Shape"></path>
                </g>
            </g>
        </g>
    </g>
</svg>