<?xml version="1.0" encoding="UTF-8"?>
<svg width="97px" height="105px" viewBox="0 0 97 105" version="1.1" xmlns="http://www.w3.org/2000/svg" xmlns:xlink="http://www.w3.org/1999/xlink">
    <!-- Generator: Sketch 55.1 (78136) - https://sketchapp.com -->
    <title>001-repair</title>
    <desc>Created with Sketch.</desc>
    <g id="Page-1" stroke="none" stroke-width="1" fill="none" fill-rule="evenodd" fill-opacity="0.186024913">
        <g id="Pitstop-Brakes-Booking-Select-Date-Order-Part-Copy" transform="translate(-70.000000, -500.000000)" fill="#FFFFFF" fill-rule="nonzero">
            <g id="Group-9" transform="translate(26.500000, 474.500000)">
                <g id="001-repair" transform="translate(92.000000, 78.000000) rotate(-360.000000) translate(-92.000000, -78.000000) translate(44.000000, 26.000000)">
                    <path d="M86.3331365,59.0215645 C84.5799945,45.9806068 77.4222469,36.474831 68.6039018,36.474831 L27.3995686,36.474831 C18.5748611,36.474831 11.4200055,45.97654 9.66339306,59.0180787 C3.29921554,62.2523198 0,68.9566746 0,76.7253602 C0,82.7052496 1.94979937,88.0472376 5.73950137,91.6730503 L5.73950137,104 L21.0110981,104 L21.0110981,96.5055306 L74.9889019,96.5055306 L74.9889019,104 L90.2604986,104 L90.2604986,91.6730503 C94.0467302,88.0472376 96,82.7052496 96,76.7253602 C95.9965296,68.9601604 92.697314,62.2523198 86.3331365,59.0215645 Z M27.3960982,41.0784105 L68.596961,41.0784105 C74.401822,41.0784105 79.4825214,47.9907513 81.3733235,57.3437329 C80.4276332,57.167119 79.4235242,57.0666118 78.3916517,57.0143248 C78.3916517,56.99341 78.3985926,56.975981 78.3985926,56.959133 C78.3985926,51.5305809 74.0050369,47.1140727 68.596961,47.1140727 C63.188885,47.1140727 58.7953294,51.5305809 58.7953294,56.959133 L18.8646414,56.959133 C17.3561642,56.959133 15.9413884,57.0910124 14.6093244,57.3402471 C16.5035969,47.9872655 21.5877668,41.0784105 27.3960982,41.0784105 Z M75.3446202,56.9626188 L61.8602914,56.9626188 C61.8602914,53.2223557 64.8870787,50.1856432 68.6073722,50.1856432 C72.3178329,50.1850622 75.3446202,53.2217747 75.3446202,56.9626188 Z M16.5799463,83.1554987 C13.0528396,83.1554987 10.1845349,80.2814569 10.1845349,76.728265 C10.1845349,73.1820448 13.0522612,70.3010313 16.5799463,70.3010313 C20.1139938,70.3010313 22.9822984,73.178559 22.9822984,76.728265 C22.98172,80.2890094 20.1174642,83.1554987 16.5799463,83.1554987 Z M66.5748611,82.0150613 L29.4147276,82.0150613 C28.5691012,82.0150613 27.8860062,81.3254539 27.8860062,80.4795665 C27.8860062,79.6371649 28.5691012,78.9510433 29.4147276,78.9510433 L66.5742827,78.9510433 C67.4199091,78.9510433 68.1030045,79.6371649 68.1030045,80.4795665 C68.1035825,81.3254539 67.4204875,82.0150613 66.5748611,82.0150613 Z M66.5748611,76.3889805 L29.4147276,76.3889805 C28.5691012,76.3889805 27.8860062,75.6993732 27.8860062,74.8534858 C27.8860062,74.0075984 28.5691012,73.3249626 29.4147276,73.3249626 L66.5742827,73.3249626 C67.4199091,73.3249626 68.1030045,74.0110842 68.1030045,74.8534858 C68.1035825,75.6993732 67.4204875,76.3889805 66.5748611,76.3889805 Z M79.4131129,83.1554987 C75.8825358,83.1554987 73.0142311,80.2814569 73.0142311,76.728265 C73.0142311,73.1820448 75.8819574,70.3010313 79.4131129,70.3010313 C82.9402196,70.3010313 85.8119946,73.178559 85.8119946,76.728265 C85.8085242,80.2890094 82.940798,83.1554987 79.4131129,83.1554987 Z M72.0517671,19.0173651 C74.2433393,22.5391847 78.1053418,24.9002331 82.5469049,24.9037189 C87.4095461,24.9037189 91.5717402,22.064535 93.6048297,17.9704633 L85.352742,17.9669775 C82.429489,17.9739491 80.062082,15.5060029 80.062082,12.4483756 C80.0655524,9.40817725 82.4329594,6.94023106 85.3492716,6.93325946 L93.5978888,6.93325946 C91.5792594,2.8391877 87.4101245,0.00348964388 82.5399641,0 C78.1053418,-0.00348195554 74.2433393,2.36395701 72.0482967,5.89332921 L19.8618097,5.89332921 C18.0328967,3.77861073 15.3716606,2.42321561 12.3691663,2.42321561 C6.85061516,2.41972981 2.37781821,6.90885886 2.38128662,12.4553472 C2.38128662,17.9878923 6.85061516,22.4770213 12.3622254,22.4839929 C15.3647198,22.4839929 18.0259559,21.1146546 19.8618097,19.0173651 C19.8618097,19.0173651 72.0517671,19.0173651 72.0517671,19.0173651 Z M9.74263439,17.0310402 L7.1126321,12.458833 L9.74610481,7.89011148 L14.9956981,7.88313988 L17.6257004,12.458833 L14.9991685,17.0310402 L9.74263439,17.0310402 Z" id="Shape"></path>
                </g>
            </g>
        </g>
    </g>
</svg>