<?xml version="1.0" encoding="UTF-8"?>
<svg width="117px" height="85px" viewBox="0 0 117 85" version="1.1" xmlns="http://www.w3.org/2000/svg" xmlns:xlink="http://www.w3.org/1999/xlink">
    <!-- Generator: Sketch 55.1 (78136) - https://sketchapp.com -->
    <title>002-car</title>
    <desc>Created with Sketch.</desc>
    <g id="Page-1" stroke="none" stroke-width="1" fill="none" fill-rule="evenodd" fill-opacity="0.186024913">
        <g id="Pitstop-Brakes-Booking-Select-Date-Order-Part-Copy" transform="translate(-60.000000, -715.000000)" fill="#FFFFFF" fill-rule="nonzero">
            <g id="Group-10" transform="translate(25.500000, 693.500000)">
                <g id="002-car" transform="translate(93.000000, 83.000000) rotate(-360.000000) translate(-93.000000, -83.000000) translate(35.000000, 22.000000)">
                    <path d="M69.6901521,76.0174014 L68.0855248,76.0286621 L70.3767698,79.5659543 C70.3767698,79.5659543 68.2540095,77.5462189 58.0615417,68.3816994 L53.0430886,56.875916 C52.3581778,55.30541 50.5077726,54.5777782 48.9089972,55.2510233 C47.3107094,55.9240289 46.5704498,57.7427491 47.2553606,59.3132551 L52.544218,71.4390949 C52.7224558,71.8475941 52.9882275,72.2139258 53.32349,72.5122141 C62.5555222,80.7231693 65.8976627,83.6636453 65.8976627,83.6636453 L59.780524,80.2274596 L59.780524,96.7063922 L51.1668377,96.6812354 C51.1653748,96.6812354 51.1641556,96.6812354 51.1626927,96.6812354 C51.1602544,96.6812354 51.15806,96.6812354 51.1556217,96.6812354 C48.4922963,96.6812354 46.661885,99.3243814 47.6425583,101.760043 L54.8478981,119.652551 C55.6181485,121.564951 57.8850107,122.56835 59.9190178,121.663422 C61.7438212,120.851934 62.6191611,118.770145 61.8742688,116.920518 L56.720004,104.122631 C56.720004,104.122631 66.392632,104.150423 69.7442818,104.122631 C72.4902646,104.09987 74.9424355,101.79718 74.9509695,98.7838686 L75,81.2124101 C75.0082689,78.3088308 72.5899899,75.9951196 69.6901521,76.0174014 Z" id="Path"></path>
                    <path d="M69.9203978,66.7504526 C69.3483758,63.0533283 65.8488623,60.5138127 62.104609,61.0785983 C60.9352969,61.2549007 59.8807743,61.7132396 59,62.3723542 L61.5884175,68.3355114 L65.8399583,74 C68.6483287,72.8153045 70.4028984,69.8692478 69.9203978,66.7504526 Z" id="Path"></path>
                    <path d="M114.216421,115.634577 L110.257527,115.634577 L110.257527,63.7205106 L113.292719,63.7205106 C114.787774,63.7205106 116,62.5023609 116,61 C116,59.4976391 114.787774,58.2794894 113.292719,58.2794894 L110.257527,58.2794894 L110.257527,3.97824014 C110.257527,1.78108803 108.4851,0 106.298632,0 C104.112165,0 102.339738,1.78108803 102.339738,3.97824014 L102.339738,58.2792509 L86.5145994,58.2792509 L86.5145994,55.3477279 C90.0805704,55.3477279 92.0489845,52.8398987 92.0489845,50.1923483 L92.0489845,39.4748239 C92.0489845,35.6873295 90.5268803,32.2574833 88.0649391,29.7672981 L87.8929164,28.8397971 L90.6457539,25.9232952 L96.1032627,25.9232952 C97.7065142,25.9232952 99.0065311,24.617164 99.0065311,23.0058396 L99.0065311,20.7860365 C99.0065311,19.1749506 97.7067514,17.8685809 96.1032627,17.8685809 L90.3707549,17.8685809 C88.7675035,17.8685809 87.4674865,19.1747121 87.4674865,20.7860365 C87.4674865,23.0406507 87.4584701,23.0687857 87.4833838,23.3088869 L86.9680275,23.8548965 L83.3059611,4.12678336 C83.0667902,2.83901141 81.9480496,1.90507274 80.6444735,1.90507274 L35.4136583,1.90507274 C34.1100822,1.90507274 32.9913416,2.83901141 32.7521707,4.12678336 L29.0803761,23.9059209 L28.5168535,23.3088869 C28.5412926,23.069501 28.5325135,23.0401739 28.5325135,20.7860365 C28.5325135,19.1749506 27.2327338,17.8685809 25.6292451,17.8685809 L19.8967373,17.8685809 C18.2934858,17.8685809 16.9934689,19.1747121 16.9934689,20.7860365 L16.9934689,23.0058396 C16.9934689,24.6169256 18.2932486,25.9232952 19.8967373,25.9232952 L25.3542461,25.9232952 L28.1550127,28.8908215 L27.9922436,29.7675365 C25.5303024,32.2577217 24.0084355,35.6873295 24.0084355,39.4750623 L24.0084355,50.1925867 C24.0084355,52.7833903 25.916345,55.3479663 29.5430578,55.3479663 L29.5430578,58.2794894 L13.6602623,58.2794894 L13.6602623,3.97824014 C13.6602623,1.78108803 11.8875982,0 9.7013678,0 C7.51513738,0 5.74247324,1.78108803 5.74247324,3.97824014 L5.74247324,58.2792509 L2.7072812,58.2792509 C1.21222609,58.2792509 0,59.4974007 0,60.9997616 C0,62.5021224 1.21222609,63.7202722 2.7072812,63.7202722 L5.74247324,63.7202722 L5.74247324,115.634339 L1.78357869,115.634339 C1.05491431,115.634339 0.463868076,116.228273 0.463868076,116.960498 L0.463868076,120.673602 C0.463868076,121.405827 1.05491431,122 1.78357869,122 L9.7013678,122 L17.6191569,122 C18.3478213,122 18.9388675,121.405827 18.9388675,120.673602 L18.9388675,116.960498 C18.9388675,116.228273 18.3478213,115.634339 17.6191569,115.634339 L13.6602623,115.634339 L13.6602623,63.7205106 L30.0899713,63.7205106 C31.0841438,65.9756017 33.3296924,67.5499691 35.9423018,67.5499691 C39.4764783,67.5499691 42.3415458,64.6711395 42.3415458,61.1194545 L42.3415458,55.3477279 L44.9425289,55.3477279 C45.6244505,54.0678242 46.7258703,53.0025094 48.1570991,52.3856855 C51.3284856,51.0201846 54.9727566,52.3461057 56.5700762,55.3477279 L73.7163487,55.3477279 L73.7163487,61.1194545 C73.7163487,64.6709011 76.581179,67.5499691 80.1155927,67.5499691 C82.7282021,67.5499691 84.9737507,65.9756017 85.9679232,63.7205106 L102.339975,63.7205106 L102.339975,115.634577 L98.3810804,115.634577 C97.652416,115.634577 97.0613698,116.228512 97.0613698,116.960737 L97.0613698,120.67384 C97.0613698,121.406066 97.652416,122 98.3810804,122 L106.298869,122 L114.216659,122 C114.945323,122 115.536369,121.406066 115.536369,120.67384 L115.536369,116.960737 C115.536132,116.228512 114.945323,115.634577 114.216421,115.634577 Z M35.7724146,46.4673231 C32.6719726,46.4673231 30.1587804,43.9401809 30.1587804,40.8226808 C30.1587804,37.7051806 32.6722098,35.1780384 35.7724146,35.1780384 C38.8726193,35.1780384 41.3860488,37.7051806 41.3860488,40.8226808 C41.3860488,43.9401809 38.8726193,46.4673231 35.7724146,46.4673231 Z M64.3414681,50.8876164 L51.7159519,50.8876164 C50.5879576,50.8876164 49.6735087,49.9686989 49.6735087,48.8349542 C49.6735087,47.7012094 50.5879576,46.7822919 51.7159519,46.7822919 L64.3414681,46.7822919 C65.4694624,46.7822919 66.3839113,47.7012094 66.3839113,48.8349542 C66.3839113,49.9686989 65.4696997,50.8876164 64.3414681,50.8876164 Z M67.7140619,43.066804 L48.3433581,43.066804 C47.2153638,43.066804 46.3009149,42.1478866 46.3009149,41.0141418 C46.3009149,39.880397 47.2153638,38.9614795 48.3433581,38.9614795 L67.7140619,38.9614795 C68.8420562,38.9614795 69.7565051,39.880397 69.7565051,41.0141418 C69.7565051,42.1478866 68.8420562,43.066804 67.7140619,43.066804 Z M64.4871535,25.7005996 C64.7972689,23.5394507 66.6472839,21.8713795 68.8826298,21.8713795 C71.1177384,21.8713795 72.9677534,23.5389739 73.2778688,25.7005996 L64.4871535,25.7005996 Z M68.8826298,17.3371157 C64.1571072,17.3371157 60.2769872,21.0340059 59.9495509,25.7003612 L37.7163896,25.7003612 C36.4892153,25.7003612 35.3007165,25.8648793 34.1689259,26.1686419 L37.6630033,7.34585558 L52.7537826,7.34585558 C52.4984772,7.72543954 52.3494699,8.18275237 52.3494699,8.67535315 C52.3494699,9.98816048 53.4086551,11.0525215 54.7150785,11.0525215 L61.3432906,11.0525215 C62.6497139,11.0525215 63.7088992,9.98816048 63.7088992,8.67535315 C63.7088992,8.18275237 63.5598919,7.72543954 63.3045865,7.34585558 L78.3953658,7.34585558 L81.8892059,26.1686419 C80.1203382,25.6936851 78.8283884,25.7003612 77.8157087,25.7003612 C77.4880351,21.0340059 73.6083896,17.3371157 68.8826298,17.3371157 Z M80.2852427,46.4673231 C77.1848006,46.4673231 74.6716085,43.9401809 74.6716085,40.8226808 C74.6716085,37.7051806 77.1850379,35.1780384 80.2852427,35.1780384 C83.3856847,35.1780384 85.8988768,37.7051806 85.8988768,40.8226808 C85.8988768,43.9401809 83.3856847,46.4673231 80.2852427,46.4673231 Z" id="Shape"></path>
                </g>
            </g>
        </g>
    </g>
</svg>