<?xml version="1.0" encoding="UTF-8"?>
<svg width="40px" height="34px" viewBox="0 0 40 34" version="1.1" xmlns="http://www.w3.org/2000/svg" xmlns:xlink="http://www.w3.org/1999/xlink">
    <!-- Generator: Sketch 55.1 (78136) - https://sketchapp.com -->
    <title>011-car-battery</title>
    <desc>Created with Sketch.</desc>
    <defs>
        <linearGradient x1="10.1968853%" y1="181.558286%" x2="85.0740997%" y2="181.558286%" id="linearGradient-1">
            <stop stop-color="#C54300" offset="0%"></stop>
            <stop stop-color="#C55400" offset="100%"></stop>
        </linearGradient>
    </defs>
    <g id="Page-1" stroke="none" stroke-width="1" fill="none" fill-rule="evenodd">
        <g id="Pitstop-Brakes-Copy-7" transform="translate(-474.000000, -688.000000)" fill="url(#linearGradient-1)" fill-rule="nonzero">
            <g id="Group-9" transform="translate(538.000000, 705.000000) rotate(-720.000000) translate(-538.000000, -705.000000) translate(474.000000, 684.500000)">
                <g id="011-car-battery" transform="translate(0.000000, 4.000000)">
                    <path d="M38.0487805,8.7804878 L38.0487805,32.1420669 C38.0487805,32.7102183 37.6707607,33.1707317 37.2044757,33.1707317 L3.771043,33.1707317 C3.30475793,33.1707317 2.92682927,32.7101074 2.92682927,32.1420669 L2.92682927,8.7804878 L2.72005127,8.7804878 L0.640507674,8.7804878 C0.286731605,8.7804878 0,8.46403107 0,8.07380035 L0,3.56290731 C0,3.1725777 0.286821236,2.85621986 0.640507674,2.85621986 L6.78117108,2.85621986 L6.78117108,0.706687456 C6.78117108,0.316357847 7.06799232,0 7.42167876,0 L11.8135393,0 C12.1673154,0 12.454047,0.316456739 12.454047,0.706687456 L12.454047,2.85621986 L27.5457738,2.85621986 L27.5457738,0.706687456 C27.5457738,0.316357847 27.832595,0 28.1862814,0 L32.578142,0 C32.931918,0 33.2186497,0.316456739 33.2186497,0.706687456 L33.2186497,2.85621986 L39.3594027,2.85621986 C39.7130891,2.85621986 40,3.1726766 40,3.56290731 L40,8.07380035 C40,8.46412996 39.7130891,8.7804878 39.3594923,8.7804878 L38.0487805,8.7804878 Z M14.3627341,21.3376017 C14.3274427,21.4334733 14.3479429,21.5379702 14.4180068,21.6190243 C14.4878112,21.6999678 14.5987457,21.747959 14.7166866,21.747959 L19.6190836,21.747959 L18.5774669,27.1668649 C18.5490521,27.3145979 18.6462333,27.4592348 18.810105,27.5128654 C18.8537003,27.5270195 18.8985931,27.5338753 18.9430967,27.5338753 C19.0662275,27.5338753 19.1849469,27.4813505 19.2547513,27.3890173 L25.7056902,18.8579864 C25.7791275,18.7607878 25.7844472,18.6372715 25.7195732,18.5357603 C25.6544397,18.4342491 25.5297519,18.3709981 25.3939058,18.3709981 L20.5650759,18.3709981 L22.2804737,13.8550773 C22.3171924,13.7588739 22.2976005,13.6534925 22.2277961,13.5718855 C22.1577322,13.4901679 22.0465382,13.4417344 21.9279485,13.4417344 L17.5341636,13.4417344 C17.3721084,13.4417344 17.2287369,13.5315243 17.1803409,13.663334 L14.3627341,21.3376017 Z" id="Combined-Shape"></path>
                </g>
            </g>
        </g>
    </g>
</svg>