<?xml version="1.0" encoding="UTF-8"?>
<svg width="73px" height="73px" viewBox="0 0 73 73" version="1.1" xmlns="http://www.w3.org/2000/svg" xmlns:xlink="http://www.w3.org/1999/xlink">
    <!-- Generator: Sketch 55.1 (78136) - https://sketchapp.com -->
    <title>002-brake-disc copy</title>
    <desc>Created with Sketch.</desc>
    <g id="Page-1" stroke="none" stroke-width="1" fill="none" fill-rule="evenodd">
        <g id="Select-Part-Brake-Copy" transform="translate(-350.000000, -192.000000)" fill="#000000" fill-rule="nonzero">
            <g id="Group-10" transform="translate(635.776011, 406.686963) rotate(-90.000000) translate(-635.776011, -406.686963) translate(235.776011, -233.313037)">
                <g id="Group-9" transform="translate(-0.000000, 0.000000)">
                    <g id="Group-8" transform="translate(400.000000, 640.000000) rotate(-270.000000) translate(-400.000000, -640.000000) translate(-240.000000, 240.000000)">
                        <g id="002-brake-disc-copy" transform="translate(354.734033, 185.789007)">
                            <path d="M35.7384549,0 C35.7142333,0 35.6900117,0 35.6657902,0 C34.1901152,0.00297098663 33,1.20961598 33,2.68336683 L33,8.21095819 C33,9.70126167 34.2160366,10.8936176 35.7077176,10.8936176 C35.7088507,10.8936176 35.7097006,10.8936176 35.7108338,10.8936176 C35.7200408,10.8936176 35.7293895,10.8936176 35.7385965,10.8936176 C49.7416438,10.8936176 61.0933488,22.23161 61.0933488,36.2177418 C61.0933488,36.2426415 61.0933488,36.2673997 61.0932071,36.2921579 C61.0888161,37.7837347 62.2853054,39 63.7786862,39 L69.3129628,39 C70.7886378,39 71.9950424,37.8113224 72,36.3375716 C72,36.2976754 72,36.2576379 72,36.2176003 C72,16.2152206 55.765168,0 35.7384549,0 Z" id="Path"></path>
                            <path d="M33,27 C26.3831454,27 21,32.3831763 21,39.0000689 C21,45.6168237 26.3831454,51 33,51 C39.6168546,51 45,45.6168237 45,39.0000689 C45,32.3831763 39.6168546,27 33,27 Z M33,45.2874468 C29.5331557,45.2874468 26.7126582,42.4669331 26.7126582,39.0000689 C26.7126582,35.5332047 29.5331557,32.7125532 33,32.7125532 C36.4668443,32.7125532 39.2873418,35.5330669 39.2873418,39.0000689 C39.2873418,42.4670709 36.4668443,45.2874468 33,45.2874468 Z" id="Shape"></path>
                            <path d="M58.7237696,41.1081804 C57.423542,39.8041571 56.7105185,38.0700358 56.7159828,36.2241171 L56.7161229,36.1637352 C56.7161229,24.6535018 47.3509816,15.2892749 35.8396242,15.2892749 L35.8193081,15.2892749 L35.8127229,15.2892749 L35.80908,15.2892749 C32.0146012,15.2892749 28.9274014,12.2121833 28.9274014,8.42984322 L28.9274014,6 C12.6358862,8.07413681 0,22.0227594 0,38.8670479 C0,57.1366838 14.8647677,72 33.1361876,72 C49.9660083,72 63.9050644,59.3893042 66,43.1219354 L63.575664,43.1219354 C61.7416146,43.1219354 60.0185328,42.4067399 58.7237696,41.1081804 Z M33.1361876,55.2686297 C24.0913395,55.2686297 16.732864,47.9108728 16.732864,38.8670479 C16.732864,29.8230829 24.0913395,22.465326 33.1361876,22.465326 C42.1810358,22.465326 49.5395112,29.8230829 49.5395112,38.8670479 C49.5395112,47.9108728 42.1810358,55.2686297 33.1361876,55.2686297 Z" id="Shape"></path>
                            <path d="M33,37 C31.8971963,37 31,37.8971675 31,39.000064 C31,40.1029605 31.8971963,41 33,41 C34.1028037,41 35,40.1028325 35,39.000064 C35,37.8972956 34.1028037,37 33,37 Z" id="Path"></path>
                        </g>
                    </g>
                </g>
            </g>
        </g>
    </g>
</svg>