<?xml version="1.0" encoding="UTF-8"?>
<svg width="40px" height="40px" viewBox="0 0 40 40" version="1.1" xmlns="http://www.w3.org/2000/svg" xmlns:xlink="http://www.w3.org/1999/xlink">
    <!-- Generator: Sketch 55.1 (78136) - https://sketchapp.com -->
    <title>Brakes</title>
    <desc>Created with Sketch.</desc>
    <defs>
        <linearGradient x1="100%" y1="56.0915589%" x2="0%" y2="56.0915589%" id="linearGradient-1">
            <stop stop-color="#ACAC38" offset="0%"></stop>
            <stop stop-color="#909101" offset="100%"></stop>
        </linearGradient>
        <linearGradient x1="100%" y1="56.0915589%" x2="0%" y2="56.0915589%" id="linearGradient-2">
            <stop stop-color="#ACAC38" offset="0%"></stop>
            <stop stop-color="#909101" offset="100%"></stop>
        </linearGradient>
        <linearGradient x1="100%" y1="56.0915589%" x2="0%" y2="56.0915589%" id="linearGradient-3">
            <stop stop-color="#ACAC38" offset="0%"></stop>
            <stop stop-color="#909101" offset="100%"></stop>
        </linearGradient>
    </defs>
    <g id="Page-1" stroke="none" stroke-width="1" fill="none" fill-rule="evenodd">
        <g id="Pitstop-Brakes-Copy-7" transform="translate(-254.000000, -679.000000)" fill-rule="nonzero">
            <g id="Brakes" transform="translate(274.000000, 699.000000) rotate(-720.000000) translate(-274.000000, -699.000000) translate(254.000000, 679.500000)">
                <path d="M21.6706555,4 C21.2006098,4 20.7349308,4.01843308 20.2741953,4.05423657 L20.2741953,7.68972173 C20.2741953,8.57794267 19.574029,9.31269086 18.6803242,9.36243155 C17.4783912,9.42933831 16.3179426,9.70804154 15.2311936,10.1908165 C14.1418904,10.6747768 13.1550827,11.3512012 12.2981658,12.201289 C11.4412901,13.0514176 10.7594972,14.0304552 10.271696,15.111222 C9.78508949,16.1893732 9.50413314,17.3406435 9.43673657,18.5331124 C9.3866011,19.4198211 8.64602158,20.1144743 7.75075127,20.1144743 L4.08645425,20.1144743 C4.0503666,20.5716228 4.03174603,21.0336758 4.03174603,21.5000204 C4.03174603,31.1650429 11.9289677,39 21.6706555,39 C31.4123433,39 39.3095238,31.1649612 39.3095238,21.5000613 C39.3095238,11.8350388 31.4123433,4 21.6706555,4 Z M29.244489,29.0142583 C27.2214385,31.0213385 24.531714,32.12671 21.6706143,32.12671 C18.8095559,32.12671 16.1198313,31.0213385 14.0967396,29.0142583 C12.0736479,27.0071782 10.9595447,24.3385509 10.9595447,21.5000204 C10.9595447,18.6614491 12.0736891,15.9929035 14.0967396,13.9857417 C16.1197901,11.9786207 18.8095559,10.8732491 21.6706143,10.8732491 C24.5316728,10.8732491 27.2213973,11.9786207 29.244489,13.9857417 C31.2675808,15.9928627 32.3816839,18.6614491 32.3816839,21.5000204 C32.3816839,24.3385509 31.2675808,27.0071782 29.244489,29.0142583 Z" id="Shape" fill="url(#linearGradient-1)"></path>
                <path d="M21.6706133,12.5 C26.6725827,12.5 30.7420635,16.5374044 30.7420635,21.5 C30.7420635,26.4625956 26.6726259,30.5 21.6706133,30.5 C16.668644,30.5 12.5992063,26.4625956 12.5992063,21.5 C12.5992063,16.5374044 16.668644,12.5 21.6706133,12.5 Z M21.6706133,24.7157122 C23.4606872,24.7157122 24.9118394,23.2759831 24.9118394,21.5000429 C24.9118394,19.7240169 23.4606441,18.2842878 21.6706133,18.2842878 C19.8805394,18.2842878 18.4293873,19.7240169 18.4293873,21.5000429 C18.4293873,23.2759831 19.8805394,24.7157122 21.6706133,24.7157122 Z" id="Combined-Shape" fill-opacity="0.5" fill="url(#linearGradient-2)"></path>
                <path d="M0.716292907,19 L2.80279443,19 L6.6633392,19 C7.04302455,19 7.35664654,18.7059441 7.37790677,18.329826 C7.54033494,15.4568971 8.74554391,12.7785992 10.8127546,10.7276235 C12.8800547,8.67669227 15.5795671,7.48101881 18.4753001,7.31986977 C18.8544036,7.29877697 19.1507937,6.98762477 19.1507937,6.61092946 L19.1507937,2.78078673 L19.1507937,0.710672142 C19.1507937,0.318523574 18.8310398,0 18.4392696,0 C18.4302285,0 18.4211425,0 18.4120118,0.000532870889 C8.41536132,0.376473283 0.37944132,8.3491099 0.00051685296,18.2669917 C-0.0147905139,18.6679326 0.31190092,19 0.716292907,19 Z" id="Path" fill="url(#linearGradient-3)"></path>
            </g>
        </g>
    </g>
</svg>