<?xml version="1.0" encoding="utf-8"?>
<!-- Generator: Adobe Illustrator 19.2.0, SVG Export Plug-In . SVG Version: 6.00 Build 0)  -->
<svg version="1.1" id="Layer_1" xmlns="http://www.w3.org/2000/svg" xmlns:xlink="http://www.w3.org/1999/xlink" x="0px" y="0px"
	 viewBox="0 0 547 367" style="enable-background:new 0 0 547 367;" xml:space="preserve">
<style type="text/css">
	.st0{fill:#FFFFFF;}
	.st1{fill:none;stroke:#EFF932;stroke-width:2;stroke-opacity:0.8;}
	.st2{fill:#EFF932;}
</style>
<title>Car Oultine Wheels</title>
<desc>Created with Sketch.</desc>
<g id="Page-1">
	<g id="Pitstop-Wheels-Copy-2" transform="translate(-172.000000, -54.000000)">
		<g id="Car-Oultine-Wheels" transform="translate(172.000000, 54.000000)">
			
				<g id="shutterstock_x5F_724603516-_x5B_Converted_x5D_" transform="translate(228.168915, 273.654848) rotate(-270.000000) translate(-228.168915, -273.654848) translate(-45.331085, 134.654848)">
				<path id="Shape" class="st0" d="M187.3-177.2c-0.5-0.6-1.6-1.3-4.2-1.3c-2.4-1.3-2.9-1.4-5.9-1.4c-0.5,0-1,0-1.6,0
					c-4.5,0-22.7,2.2-24.3,2.5c-0.1,0-0.2,0-0.3,0.1c-1,0.6-1.8,1.2-2.6,2c-2.4,0.4-19.6,3.6-27.1,8.2c0,0,0,0-0.1,0
					c-2.8,2.1-4.2,4-4.9,4.9l-1.5-0.6c-0.2-0.1-0.5-0.1-0.7,0c-0.3,0.2-6.7,4-15.1,22.8c-9.8,22.1-21.9,52-23.8,63.9
					c-1.6,2.4-5.2,7.2-9.7,13.2c-13.7,18.3-36.7,49-49.4,72.5l0,0.1c-3.4,7.7-6,22.5-9.3,41.3l-0.5,2.8c-3,17.1-6.8,48-6.8,119.7
					c0,4.5,0,9.2,0,14.1c0.2,32.5,3.7,60.9,10.3,84.4c5.3,18.6,11.1,28.7,13,32l0.4,0.6c1.6,2.8,5.6,6.9,11.5,11.6
					c6.4,5.2,14.2,10.6,22.8,15.8L76,343c0,0,0.1,0,0.1,0.1c0.1,0,5.7,2.3,9.5,8.8c0,0.1,0.1,0.1,0.1,0.2c1.7,1.6,7.1,3.6,33.8,5.4
					c2.4,0.1,6,1.4,10.6,3c4.7,1.7,10.5,3.7,17.1,5.2c9.6,2.1,21.9,2.1,37.7,0c0.8,0,1.8,0,3,0c11.8-0.1,43.3-0.3,55.5-17.3
					c3.3-4.7,2.4-30.7,1.7-34.3c-0.5-2.5-5.6-6.1-9.8-8.5c-6-3.3-12.6-5.5-18.1-6c-0.2-2.6-0.8-12.4-1.4-19.3
					c3.4-22.6,11.5-86.3,12.4-93.1c2.6-0.4,13.3-2.6,23.9-8.8c7.2-4.2,13-9.4,17.2-15.5c5.3-7.6,8.1-16.7,8.4-26.9v-0.6
					c0-18.4-2.3-30.9-7.4-40.7c-5.6-10.7-15-18.6-29.4-24.9c2-2.6,7.8-11.4,7.8-24.2c0-14.1-6.7-22.5-7.9-24
					c-0.1-4.8-2.1-68.2-2.8-81.4c9.5-6.3,21-17.8,22.3-36.8l0.2-2.8c1.2-16.8,2.6-35.8-12-53c-8.6-10-16.6-12.6-18.7-13.2
					c-0.6-2.5-2.4-10-5.2-11c-0.3-0.1-0.7-0.3-1-0.4c-2.5-1.1-5.4-2.4-15.8,0.4C201.1-177.5,194.2-177.6,187.3-177.2L187.3-177.2z
					 M208-175.3c0.1,0,0.2,0,0.2,0c5.2,3.8,8.1,6.9,10.2,13.3c2.2,6.6,3.6,16.5,5,36.7c3,41.3,4.1,70.4,3.6,94.2
					c-0.5,25.5-7.4,69-9.9,82c-2.2,11.8-5.9,18-12.7,21.5c-8.1,4.1-13.8,6-15.3,5.1c-0.2-0.1-0.4-0.3-0.4-0.8c0-1,0.2-3.8,0.4-8.1
					c0.8-13,2.4-40,2.5-70c0.2-39-3.9-152.5-4.7-163c-0.5-6.8-2.1-10.7-3-12.4c1.6,0.1,2,0.6,2.1,0.8c0.1,0.4,0.4,0.6,0.8,0.5
					c0,0,0.1,0,0.2,0c1.1,1.7,4,8,5.3,29.3c1.6,26.9,3.9,119.3,3.9,140.3c0,15.4-2,46.9-3,63.8c-0.4,5.9-0.6,9.9-0.6,10.6
					c0,1.8,0.1,3.3,1,3.9c0.5,0.4,1.3,0.3,2.4-0.1c0.2-0.1,0.5-0.2,0.8-0.3c1.8-0.7,4.9-1.9,8-5.2c3.7-4.1,6.3-10.2,7.6-18.2
					c3.5-20.6,8.1-53.8,9-64.6v0c0-0.1-0.1-0.2-0.2-0.3s-0.3,0.1-0.3,0.2c-4.3,13.2-9.8,27.9-10.7,30.2c-2.1-1.2-7.3,1.2-9.5,2.3
					c-2.1,1.1-3.6,3.2-3.8,5.6c-0.6,12.4-1.3,23.7-1.8,31.9c-0.2,3.9-0.4,7-0.6,9.3l0,0.6c-0.2,3-0.3,4.6-0.2,5.4
					c0.1,0.9,0.4,1,1,1.1c0.1,0,0.2,0,0.3,0c0.1,0,0.1,0,0.2,0c4.7-2.6,10.6-8.4,11.9-15.8c1.4-7.7,3.5-33.1,3.5-38.1
					c0-0.2,0-0.3,0-0.5c0-0.5-0.2-0.9-0.5-1.3c0.6-1.6,5.7-15.3,10-28.2c-1.2,12.6-5.5,43-8.8,62.3c-3.2,18.5-11.7,21.7-15.3,23.1
					c-0.3,0.1-0.6,0.2-0.9,0.3c-0.9,0.4-1.5,0.4-1.8,0.2c-0.7-0.4-0.7-1.9-0.7-3.4c0-0.7,0.2-4.6,0.6-10.5c1-16.5,2.9-47,3-62.7
					c1.5-0.6,13.1-5.8,20.6-12.5c7.3-6.5,7.3-7.8,7.3-24c0-1.8,0-3.7,0-5.8c0-41.6-2.7-79.6-4.3-95.5c-1.4-13.6-2.3-15.4-9.9-18.8
					c-6.8-3.1-18.5-5.4-20-5.7c-0.1-0.5-0.2-1-0.3-1.4c8.4,1.4,12.4,1,12.6,1c0,0,0,0,0,0c0,0,0,0,0,0c0,0,3.5-0.9,11.2,6.5
					c0.1,0.1,0.2,0.1,0.3,0c0.1,0,0.1-0.1,0.1-0.2v-0.1c-1.5-7.1-5.3-10.9-8.3-12.9c-0.8-0.5-1.6-1-2.5-1.4
					C205.2-175.5,206.6-175.4,208-175.3L208-175.3z M190.1-169.2c-0.4-1.7-0.9-3.4-1.6-5.1c1.2-0.1,5.3-0.4,8.6,0
					c3,0.4,4.9,4.9,5.4,6.1C201.3-168,197.3-167.9,190.1-169.2z M203-168.2c-0.4-1-0.9-2-1.4-2.9c-1.3-2.2-2.8-3.4-4.4-3.6
					c-3.5-0.5-7.9-0.1-8.9,0c-0.1-0.3-0.3-0.6-0.5-0.9c4.8-0.3,9.6-0.3,14.4-0.1c3.3,1.2,9.5,4.7,11.7,13.7
					C207.3-168.1,203.9-168.3,203-168.2z M216.8-152c0.3,4.2,0.6,9,0.7,14.3c0.2,5.9,0.5,16.2,0.9,28.2c0.9,25.4,2,60.2,2.7,83.9
					c-0.6,1.9-1.7,3.6-3.5,5.4c-0.6-23.5-1.9-61.5-2.9-89.3c-0.4-12-0.8-22.3-0.9-28.2c-0.3-7.9-0.7-14.5-1.3-19.7
					C215.3-155.5,216.3-153.6,216.8-152z M217.2-149.9c0.9,5.9,2.1,22.9,3.8,50.7c1.7,28.7,1.9,56.7,1.4,65.1
					c-0.2,3.1-0.4,5.6-1,7.8c-0.7-23.6-1.9-58-2.7-83.1c-0.4-12-0.8-22.3-0.9-28.2C217.6-142.1,217.4-146.2,217.2-149.9L217.2-149.9
					z M212.4-157.6c0.6,5.3,1,12,1.3,20c0.2,5.9,0.5,16.2,0.9,28.2c0.9,27.9,2.2,66,2.9,89.5c-1.1,1-2.2,1.9-3.5,2.8
					c-0.6-23.1-2-63.1-3-92.3c-0.4-12-0.8-22.3-0.9-28.2c-0.4-11.3-1-18.2-1.5-22.1c1.1,0.5,2.2,1.1,3.2,1.8
					C212-157.9,212.2-157.7,212.4-157.6L212.4-157.6z M208.3-159.9c0.5,3.8,1.2,10.8,1.6,22.2c0.2,5.9,0.5,16.2,0.9,28.2
					c1,29.3,2.4,69.3,3,92.4l-0.4,0.2c-1,0.7-2.1,1.4-3.1,2c-0.6-22.6-2-64.3-3-94.7c-0.4-12-0.8-22.4-0.9-28.2
					c-0.4-12.6-1.2-19.9-1.8-23.8C205.9-160.9,207.1-160.4,208.3-159.9L208.3-159.9z M204.3-161.5c0.6,3.9,1.4,11.1,1.8,23.9
					c0.2,5.9,0.5,16.2,0.9,28.2c1,30.5,2.5,72.2,3,94.8c-1.2,0.8-2.4,1.5-3.6,2.2c-0.5-22-2-65.3-3.1-97c-0.4-12-0.8-22.4-0.9-28.2
					c-0.5-14.6-1.4-21.9-2-25.1C201.8-162.4,203.1-162,204.3-161.5L204.3-161.5z M200.2-162.9c0.6,3.1,1.6,10.5,2,25.2
					c0.2,5.9,0.5,16.3,0.9,28.2c1.1,31.8,2.6,75.2,3.1,97.2c-1.3,0.8-2.6,1.5-3.7,2.1c-0.5-21.1-2.1-68.1-3.1-99.3
					c-0.4-12-0.8-22.3-0.9-28.2c-0.5-16.5-1.7-23.7-2.2-26.3C197.6-163.6,198.9-163.3,200.2-162.9L200.2-162.9z M195.9-164
					c0.5,2.5,1.7,9.6,2.3,26.4c0.2,5.9,0.5,16.2,0.9,28.2c1.1,31.3,2.7,78.4,3.1,99.5c-1.2,0.7-2.3,1.2-3.2,1.7
					c-0.6-27.7-2.9-107.6-3.6-129.4c-0.6-18.7-2-25.4-2.4-27.1C194.1-164.5,195-164.3,195.9-164L195.9-164z M192.5-164.9
					c0.3,1,1.8,7.5,2.5,27.2c0.7,21.8,3,102.2,3.6,129.6c-0.8,0.4-1.4,0.7-1.7,0.9c-0.1-23.1-2.4-112.7-3.9-139.2
					c-0.5-8.4-1.2-14.5-2-18.9C191.5-165.1,192-165,192.5-164.9L192.5-164.9z M196.9-6.6c0.3-0.1,1-0.5,2.1-1h0
					c3.1-1.6,9.1-4.8,14.7-8.7c8.1-5.5,8.7-9.2,9.2-17.8c0.2-2.6,0.3-7.1,0.3-13c0-12.9-0.5-32.4-1.6-52.1
					c-1.8-30.7-3.2-48.3-4.1-52.2c-1-4.6-4.9-9.5-26.6-14.3c-0.1-0.3-0.1-0.6-0.2-0.9c2.2,0.4,13.2,2.7,19.7,5.6
					c7.1,3.2,8.2,4.6,9.6,18.4c1.6,15.9,4.3,53.9,4.3,95.4c0,2.1,0,4.1,0,5.8c-0.1,16-0.1,17.3-7.2,23.7C210-11.4,199-6.4,196.9-5.4
					L196.9-6.6L196.9-6.6z M210.8,15.5c0.2,3.5-2,30.5-3.5,38.5c-1.3,7.2-7,12.8-11.6,15.4c-0.1,0-0.1,0-0.2,0c-0.4,0-0.5,0-0.5-0.6
					c-0.1-0.7,0-2.3,0.2-5.3l0-0.6c0.1-2.3,0.3-5.4,0.6-9.3c0.5-8.2,1.2-19.5,1.8-31.9c0.2-2.2,1.5-4.2,3.5-5.2
					c3.4-1.7,7.5-3.2,9-2.3C210.5,14.5,210.7,14.9,210.8,15.5L210.8,15.5z M151.8-175.8c0.1,0,0.3,0,0.6-0.1c1.4,0.8,4,3.1,4.4,8.9
					c0.7,11.5,4.9,106.8,3.4,164.7c-1.5,57.4-7,84.3-7.8,86.4c-0.3,0.7-1.1,1.1-1.8,1.2c0.5-1.4,1.1-4.7,1.8-9.9
					c0.7-5.4,1.9-15.2,3-30.7c2.1-27.6,2.1-41.9,2.1-42.1c0-0.1,0-0.1,0-0.2c0-0.1-3.7-8.5-7-17.7c0-12-0.7-67.8-1.8-100.4
					c-1.1-29.9-1.4-36.3-1.4-37.2l6.6-14.5c0.9-1.9-0.2-3.7-3.9-6.9C150.5-174.9,151.1-175.4,151.8-175.8L151.8-175.8z M140.1,128.1
					c-7.7,6.6-11.6,14.1-11.3,22c0.3,8.5,5.5,16.8,14.7,23.6c8.6,6.3,20.9,10,29.7,12c5.7,1.3,10.8,2.1,13.9,2.5
					c-34.2,1.4-76.3-1.3-83.8-2.4c4.6-29.1,9.8-56.8,13.1-72.1c1.1-5.1,2.2-10.8,3.2-17.1c1.1,0.4,2.2,0.4,3.3,0.4
					c4.9-0.1,22.8-8.4,26.6-10.4c-0.4,3.9-2.1,21.2,0.2,34.6C146.3,123.2,143.1,125.5,140.1,128.1z M138.8,332.7
					c-7.6,0.9-18.6,1.2-28.8,0.8c-11.2-0.4-19.4-1.7-22.6-3.4l0-0.1c1.2-22.1,2.8-40.4,4.7-58.3c12.8,6.4,47.3,3.9,63.9,2.7
					c3.1-0.2,5.6-0.4,7.1-0.4c-3.3,22.2-5,35.2-4.8,39.8v0c0.7,2.9,7.8,6.8,10.5,8.1c0,0,0.1,0,0.1,0c0,0,0.1-0.1,0.1-0.1
					c2.4-14.2,6.8-41.2,7.2-44c1.3-0.1,20-1.6,28.1-5.3c-1.8,12.3-3.1,21.6-3.5,24c-1.5,9.1-3.1,14.9-12.3,19.2
					c-5.1,2.4-12.8,4.6-21,7c-7.7,2.2-15.6,4.5-22.7,7.3C142.8,330.7,140.8,331.7,138.8,332.7L138.8,332.7z M102.9,186.2
					c-2,12.5-3.8,25.3-5.3,37.5l-0.9,7.2c-1.7,14-3.3,27-4.7,40.2c-3.7-1.8-7.4-3.7-8.7-4.3c1-9.1,2.2-18.7,3.2-27.9
					c3.2-27.9,6-52.2,6.3-56.4C94.7,183.2,100.5,185.3,102.9,186.2C102.9,186.2,102.9,186.2,102.9,186.2z M176,277.8
					c-0.5,2.8-4.8,29.6-7.2,43.9c-3.7-1.8-9.5-5.4-10.2-7.8c-0.2-4.7,1.6-17.6,4.8-39.8C170.2,275.8,175.3,277.5,176,277.8
					L176,277.8z M163.2,273.5c-1.4,0-3.9,0.2-7.2,0.4c-16.5,1.2-51,3.6-63.6-2.7l-0.2-0.1c1.4-13.2,3-26.2,4.8-40.3l0.9-7.2
					c1.5-12.2,3.3-24.9,5.3-37.5c7.4,1,48.9,3.7,83,2.4c-0.2,0-0.3,0.1-0.5,0.1c-3.3,0.9-5.5,2.6-6.5,4.9
					C176.8,199.1,166.9,248.9,163.2,273.5L163.2,273.5z M83.4,192.8c0.1,1.3,0.7,8.1,0,22.1c-0.7,14.1-3,21.9-3.4,23.2l-0.1,0
					c-1.6,0.8-7.7,0.1-8.9,0c0.5-1.6,1-3.3,1.3-4.9c0.7-3.2,1.5-8.7,1.8-16.4c0.2-5.3,0.3-10,0.3-14c0-6.2-0.2-10.5-0.2-11.6
					C76.2,191.4,80.3,191.9,83.4,192.8L83.4,192.8z M69.6,240c-0.6,1-9.9,0-15.8-1.4c-3.2-2.4-6.2-2.5-8.4-2.5c-0.7,0-1.5,0-2.2-0.2
					c-2-0.5-5.9-2-6.5-2.2l1.2-36.9H39c0,0.5-0.1,2.6,0,7.1c0.1,5.4,0.2,10.4,6.2,14.8c8.3,6.1,19.8,8.5,21.5,8.9
					c0.9,3.4,2,6.8,3.3,10.1C70.2,238.5,70,239.3,69.6,240L69.6,240z M73.8,216.8c-0.3,7.7-1.2,13.1-1.8,16.4
					c-0.3,1.6-0.7,3.1-1.2,4.7c-1-2.3-5.3-13.5-6-25.5c-0.3-5.7,0.9-10.9,3.8-15.3c2.1-3.2,4.4-5,5.3-5.7
					C74,193.4,74.3,203.6,73.8,216.8L73.8,216.8z M68.1,196.7c-2.9,4.4-4.2,9.8-3.9,15.6c0.3,5.4,1.4,10.6,2.5,15
					c-2.1-0.4-13.2-2.9-21.3-8.8c-6-4.4-6.1-9.4-6.1-14.6c-0.1-5.2,0-7.2,0-7.2c0,0,0-0.1,0-0.1c0,0-0.1,0-0.1,0h-1.4
					c-0.1,0-0.1,0.1-0.1,0.1l-1.2,37.2c0,0.1,0,0.1,0.1,0.1c0,0,4.4,1.7,6.6,2.3c0.7,0.1,1.5,0.2,2.3,0.2c2.2,0,5.2,0.1,8.3,2.5
					c0,0,0,0,0,0c5,1.2,15.3,2.6,16.1,1.2c0.3-0.6,0.6-1.2,0.6-1.8l0.1,0.2c0,0.1,0.1,0.1,0.2,0.2c0.3,0,7.5,0.9,9.4,0
					c0.9-0.5,1.7-0.9,2.4-1.2l-2.2,18.5c-1.9-0.1-14.4-1.1-29.4-4.7c-13.9-3.3-33.5-11-35.4-11.8c0-1.6-0.2-14.7,2.2-22.5
					c2.6-8.6,6.8-12.6,19.8-21.7c3.2-2.2,7.1-4.8,11.4-7.5c1.2,0.3,13.5,3.3,22.5,5.1C70.2,193.9,69,195.3,68.1,196.7L68.1,196.7z
					 M80.2,238c0.6-1.9,2.7-9.6,3.4-23.1c0.3-5.2,0.4-9.5,0.4-12.8c0-5.4-0.2-8.3-0.3-9.3c1.8,0.6,3.2,1.3,3.6,2.2
					c1.2,2.9,0.4,17.1-0.7,34.4l-0.6,5.4C85.4,235.2,84,236,80.2,238L80.2,238z M91.8,182c0,1.7-1.8,17.8-4.1,37.8
					c0.4-7.5,0.7-13.5,0.7-17.7c0-3.7-0.2-6.1-0.6-7.2c-1.3-3.3-13.3-4.1-13.7-4.1c0,0-0.1,0-0.1,0c-0.7,0.4-1.4,0.9-2,1.5
					c-8.4-1.6-19.7-4.4-22.4-5c5.1-3.2,10.7-6.6,16-9.6c3.9,0.9,12.3,2.3,26.2,2.6C91.7,180.8,91.8,181.4,91.8,182L91.8,182z
					 M66.1,177.2c7.6-4.4,14.5-8.1,18.3-9.7c1.5,1.2,3,3,4.3,5.3c1.2,2.1,2.2,4.4,2.8,6.8C78.4,179.4,70.2,178.1,66.1,177.2
					L66.1,177.2z M83.9,167.2c-3.9,1.7-10.9,5.4-18.6,9.9c-2.4,0.4-3.2-0.6-3.6-1.2c9.3-5.2,18.1-9.3,20.1-9.8
					C82.6,166.4,83.3,166.7,83.9,167.2L83.9,167.2z M61.9,176.9c0.4,0.4,1.2,0.8,2.4,0.8c-9.7,5.6-20.2,12.2-27.1,17
					c-13.1,9.2-17.3,13.2-20,22c-2.6,8.4-2.2,22.7-2.2,22.9c0,0.1,0.1,0.2,0.2,0.2c0.2,0.1,21,8.4,35.7,11.9
					c14.9,3.6,27.4,4.6,29.4,4.7l-0.2,2c-2.3-0.2-11.5-1.2-27.2-4.4c-16.9-3.4-37.6-12.6-40.8-14c0-0.5,0-0.9,0-1.4
					c0-0.8,0-1.6,0-2.4c0-11.8,1.8-21.2,5.2-27.2c6.6-11.5,31.2-25.5,41.7-31.5l0.4-0.2c0.7-0.4,1.4-0.8,2.1-1.2
					C61.5,176.4,61.6,176.6,61.9,176.9L61.9,176.9z M52.6,254.5c15.7,3.2,25,4.2,27.3,4.4l-1.1,8.7c-2-0.4-14.4-3.2-30-7.6
					c-15.6-4.4-33.7-13.3-36.6-14.7c-0.1-1.6-0.2-3.1-0.2-4.7C15.8,242.3,36,251.1,52.6,254.5L52.6,254.5z M68.1,267.6
					c0,1.1-0.1,5.9,0,10.8c0.1,5.2,4.9,6.9,5.6,7.1c0,1.1,0.2,10.6,0,17.8c-13.2-3.8-31.6-13.4-36.3-18.1
					c-0.8-3.9-0.7-24.3-0.7-27.1c3.9,1.5,8.3,3,13.2,4.5C57.2,264.8,63.4,266.5,68.1,267.6L68.1,267.6z M36.4,257.9
					c0,2.4-0.1,23.4,0.7,27.3c0,0,0,0,0,0.1c4.8,4.8,23.4,14.5,36.6,18.3c0,0,0.1,0,0.1,0c0,0,0.1-0.1,0.1-0.1
					c0.1-2.5,0.1-5.4,0.1-8.1c0-5.3-0.1-9.9-0.1-10c0-0.1,0-0.1-0.1-0.1c-0.1,0-5.4-1.5-5.5-6.9c-0.1-4.8,0-9.5,0-10.7
					c5.7,1.4,9.3,2,10.2,2.2c-0.6,6.7-2.4,29.1-3.1,38.3c-16.6-2.4-35.4-8.7-50.4-17.1c-6.7-18.4-9.2-36.8-9.8-42.4
					c0.9,0.5,4,2.1,8.9,4.3C27.3,254.3,31.4,256.1,36.4,257.9L36.4,257.9z M50,262c-8.7-2.7-17.2-5.9-25.5-9.6
					c-5.9-2.6-9.1-4.5-9.2-4.5c0,0,0,0,0,0l-0.1-0.7c6.6,3.1,20.8,9.6,33.5,13.2c15.8,4.4,28.3,7.2,30.1,7.6l-0.1,1.2
					C76.9,269,66.4,267.1,50,262L50,262z M14.7,247.1c0.2,1.9,2.4,23.1,10,44.3c0,0.1,0.1,0.1,0.1,0.1c15.1,8.4,34.1,14.9,50.9,17.2
					c0.1,0,0.1,0,0.2-0.1c0.1,0,0.1-0.1,0.1-0.2c0.8-10.5,3.3-40.1,3.3-40.5l1.1-9c0,0,0.1,0,0.1,0c0.1,0,0.3-0.1,0.3-0.2v0
					c0-0.1-0.1-0.2-0.2-0.3c0,0,0,0,0,0l2.6-21.3c1.4-0.8,2.3-1.3,2.8-1.6l-0.4,3.3c-3.3,28.8-7.1,61.5-8,72.1
					c-0.5,5.2-3.6,8.2-6,9.8c-3,2-6.1,2.6-7.3,2.6c-1.2-0.1-7.9-1.1-24.3-13.8c-13.8-10.7-16.6-12.9-22.7-35
					c-2.5-9.4-4.2-18.9-4.9-28.6C12.8,246.1,13.6,246.5,14.7,247.1L14.7,247.1z M78.5,310.9c0.6-7.2,2.5-24.4,4.7-43.6
					c1.4,0.7,5.1,2.6,8.7,4.3c-1.9,17.8-3.5,36.1-4.7,58.1c-3.9-6-10.3-9.7-12.2-10.8C77,316.7,78.3,313.9,78.5,310.9L78.5,310.9z
					 M163.5,273.5c3.6-24.6,13.6-74.4,15.9-79.7c1.2-2.8,4.1-4.2,6.4-4.8c0.7-0.2,1.3-0.3,2-0.4c0.8,0,1.6-0.1,2.4-0.1
					c-0.3,1.8-1.9,11.8-3.8,24.9c-2,13.8-9.7,59.9-10.4,63.9C175.1,276.9,170.1,275.2,163.5,273.5z M74,148.9
					c-0.5,5.2-0.6,5.9-16,15.1c-2.6,1.6-5.6,3.3-9.1,5.5c-19.1,11.6-31.4,21.8-34.4,24.4c-0.4-2.6-1.4-10.5-2.2-23.3
					c-0.9-14.7-1.9-39-0.8-71.5c2.4-71.2,6.6-84.4,6.7-84.9C22.7,1.1,68-59,75.2-68.6C75-59,73.8-9.2,73.7,28.1c0,2.8,0,5.8,0,8.9
					c0,17.5,0.2,38.6,0.3,57.5C74.2,121.6,74.4,144.9,74,148.9z M75.3,137.4c1.7-8.5,9-42.8,21.6-80.9c7.5-22.8,16-37.1,21.8-45.1
					c4.7-6.5,8.5-9.9,10.1-11.2c-1.5,5.5-9.6,34.9-13,63.1l0,0.3c-1.7,1.8-9.2,10.8-18.2,33.5c-4.9,12.5-8.8,23.6-11.7,31.7
					c-3.2,9-5.3,15-6.5,16.7c-1.7,2.3-3.4,2.9-4.3,3.1C75.2,146.9,75.3,142.9,75.3,137.4L75.3,137.4z M130.1-132.7l7.4-0.5
					c0.3,5.9,0.5,12.9,0.8,20.5l-7.6,0.6L130.1-132.7z M130.7-111.8l7.6-0.6c0.2,7.1,0.4,14.8,0.5,22.5l-7.6,0.7
					c-0.1-9.2-0.3-17-0.4-22L130.7-111.8z M131.1-89.1l7.6-0.7c0,2.4,0,4.9,0,7.3v0.4c0,8.1,0,16.6,0.1,24.9l-7.3,0.8
					C131.4-67.7,131.2-79.2,131.1-89.1L131.1-89.1z M131.5-56.1l7.3-0.8c0,8.7,0.1,17.1,0.2,24.3l-7.3,2.1
					C131.6-38.2,131.6-47.1,131.5-56.1L131.5-56.1z M131.7-30.2l7.3-2.1c0.1,11.6,0.2,20.2,0.2,22.3l-7.3,5.5
					C131.9-6.9,131.8-16.9,131.7-30.2z M139.4-10.2c0-2.4-0.1-10.9-0.2-22.2v0C139.1-46.6,139-65.2,139-82v-0.4c0-2.5,0-5,0-7.4l0,0
					c-0.1-7.8-0.2-15.5-0.5-22.7v0c-0.2-7.7-0.5-14.8-0.8-20.7v0v0c-0.4-8.8-0.7-15-0.8-16.5l1.9,0.4c0.1,4,1.7,44.3,1.7,58.4
					c0,14.1,0.7,73.2,0.8,79.4L139.4-10.2z M141.2-32.8l6.4-1.3c0.1,9.7,0.2,16.5,0.3,17.5l-6.4,4.9
					C141.4-14.2,141.3-22.4,141.2-32.8z M147.6-34.4l-6.4,1.3c-0.1-7.3-0.2-15.7-0.3-23.8l6.3-0.9C147.4-49.3,147.5-41.2,147.6-34.4
					z M147.2-58l-6.3,0.9c-0.1-13.4-0.2-26.2-0.3-32.6h6.2l0,2.1C147-78.4,147.1-68,147.2-58z M140.7-90v-1c0-4.9-0.2-12.9-0.4-21.5
					h6c0.3,7.2,0.5,14.8,0.6,22.5L140.7-90z M140.3-112.7c-0.2-6.9-0.4-14.2-0.6-20.5h5.6c0.3,5.8,0.7,12.8,1,20.5H140.3z
					 M139.6-133.5c-0.3-8-0.5-14.3-0.6-15.9l5.3,1.3c0.1,1.1,0.4,6.6,0.9,14.6L139.6-133.5z M136.7-149.9c0.1,1.4,0.4,7.6,0.8,16.5
					l-7.4,0.5l-0.6-18.7L136.7-149.9z M130.2-111.3c0.7,23.2,1.2,106.4,1.2,107.3c0,0.1,0.1,0.2,0.1,0.2c0.1,0,0.2,0,0.3,0l7.5-5.7
					h0c0,0,0.1,0,0.1,0l2-1.5c0,0,0.1-0.1,0.1-0.1v-0.1l6.8-5.2c0.1-0.1,0.1-0.1,0.1-0.2l0,0c0-0.4-0.6-41.8-1-71.2
					s-2.5-60.3-2.5-60.6c0-0.1-0.1-0.2-0.2-0.2l-15.3-3.7c0,0,0,0,0,0l-0.8-0.2c3.3-0.2,10.8-0.5,17.6-0.4c0,0,0,0,0.1,0
					c0.1,1.2,0.4,8,1.4,37.1c1.2,32.8,1.8,88.7,1.8,100.5c0,0.1,0,0.1,0,0.2l0,0c-2.5,1.8-15.9,11.3-19.4,14
					c-0.1-4.8-0.5-40.4-1.1-75.7c-0.9-54.1-1.3-70.4-1.6-75.4l1.7,0.4C129.1-149.8,129.6-133.1,130.2-111.3L130.2-111.3z
					 M116.8,63.5c3.2-26.6,10.6-54.3,12.7-61.8c0.1,4.4-0.1,16.1-2.4,37.4c-2.4,22.1-4.9,40.9-7.5,56.2c-0.5-0.2-1-0.6-1.3-1
					C117.1,93,113.7,89.3,116.8,63.5L116.8,63.5z M127.3,39.1c2.5-22.8,2.5-34.7,2.4-38.3l0.3-1.1c0-0.1,0-0.1,0-0.2v-0.2
					c3.2-2.5,16.8-12.1,19.5-14c3.1,8.6,6.5,16.5,6.9,17.5c0,1.4-0.1,15.6-2.1,41.9c-2.1,28.1-4.2,39.6-4.9,40.7
					c-1.2,0.8-21.5,10.4-26.6,10.5c-1.2,0-2.2-0.1-3.1-0.4C122.3,80,124.9,61.2,127.3,39.1L127.3,39.1z M149-173.7
					c4.3,3.6,4.2,4.8,3.8,5.8c-0.6,1.4-6.4,14-6.6,14.6c0,0-0.1,0-0.1,0c-7.9-0.1-16.6,0.4-18.8,0.5c-0.1-1.4-0.1-1.5-0.2-1.6
					c0,0-0.1-0.1-0.1-0.1l-0.2-0.2c0-0.4,0-0.7,0-1.1c0-5-3-8.6-4.3-9.9C130.3-170.4,148.4-173.6,149-173.7z M122.3-165.7
					C122.3-165.7,122.3-165.7,122.3-165.7c1.4,1.3,4.7,5.2,4.3,10.7c-2.2-1.9-7-5-8.8-6.1C118.3-161.9,119.7-163.6,122.3-165.7z
					 M114.9-161.1l1.7,0.7c0.2,0.1,0.3,0.1,0.5,0c1.6,1,6.6,4.2,8.8,6.1c-1.5,0.3-5.2,1.2-9.9,4c-4.9,2.9-11.8,8.4-18.5,18.4
					c1.1-2.5,2.2-5,3.3-7.4C107.8-155.2,113.5-160.1,114.9-161.1z M76.8,341.6l-18.2-10.9c-18.4-11.1-30.9-21.9-33.7-26.8l-0.4-0.7
					c-1.9-3.3-7.6-13.2-12.8-31.6c-6.6-23.4-10.1-51.6-10.3-84c0-4.9,0-9.6,0-14.1c0-71.6,3.8-102.4,6.8-119.4l0.5-2.8
					c3.2-18.7,5.8-33.4,9.2-40.9c12.6-23.3,35.5-53.9,49.2-72.3c4.8-6.4,8.2-11,9.8-13.4c0.1-0.1,0.1-0.2,0.1-0.3
					c1.5-10.1,10.9-34.2,19.8-54.8c6.9-10.8,14.1-16.6,19.2-19.6c4.9-2.9,8.7-3.8,10-4c0,0,0,0,0.1,0.1c0.7,4.4,2.1,101.9,2.8,153.4
					l-0.1,0.4c-1.4,1.1-5.3,4.6-10.4,11.5c-5.8,8-14.3,22.3-21.9,45.2c-12,36.5-19.2,69.5-21.3,79.7c0-10.2-0.1-25.3-0.3-41.7
					c-0.2-22.3-0.4-47.5-0.3-66.4c0.2-41.2,1.5-97.7,1.6-98.2v0c0-0.2-0.1-0.4-0.4-0.5c-0.2-0.1-0.4,0-0.6,0.2
					c-2.2,2.9-53.2,70-58,84.3c-0.2,0.5-4.4,13.9-6.8,85.2c-1.1,32.6-0.2,56.9,0.8,71.6c1,15.9,2.3,24.2,2.4,24.3
					c0,0.2,0.2,0.3,0.3,0.4c0.2,0.1,0.4,0,0.5-0.1c0.1-0.1,13.1-11.6,35-24.9c3.5-2.1,6.4-3.9,9.1-5.5c13.7-8.2,15.9-9.5,16.5-15.8
					c0.9-0.2,2.9-0.8,4.7-3.3c1.3-1.8,3.4-7.8,6.6-16.8c2.8-8.1,6.7-19.2,11.6-31.7c5.3-13.4,10-21.9,13-26.6
					c2.1-3.2,3.6-5.2,4.5-6.2c-2.6,22.6-0.2,28.2,1.8,30.5c0.5,0.6,1.2,1.1,1.9,1.4c-1.1,6.3-2.2,12-3.2,17.1
					c-3.3,15.4-8.5,43.1-13.1,72.2c-2.5-0.9-8.5-3.1-10.2-3.7c-0.1-4.7-4.9-15.1-10.8-16.8c-0.1,0-0.2,0-0.2,0
					c-2.4,0.4-13.4,5.8-23.1,11.3l-0.4,0.2c-10.6,6-35.4,20.1-42.1,31.9c-4.7,8.3-5.5,20.9-5.3,30.1c0.2,11.6,2.2,24.7,5.3,36.1
					c6.2,22.4,9.4,24.9,23.1,35.5c12.9,10,21.3,13.8,24.9,14c1.4,0.1,4.8-0.6,8-2.7c1-0.6,1.8-1.4,2.6-2.2
					c1.7,0.9,8.5,4.8,12.4,11.1c0,0,0,0.1,0.1,0.1c-0.3,5.7-0.6,11.6-0.9,17.8c-0.5-0.3-1.1-0.5-1.7-0.7
					C81.1,343.5,77.4,341.9,76.8,341.6L76.8,341.6z M86.3,349l0,0.9c-0.3-0.5-0.7-1-1-1.4C85.6,348.6,86,348.7,86.3,349
					C86.3,349,86.3,349,86.3,349L86.3,349z M86.9,350.9c-0.1-0.2-0.3-0.5-0.4-0.7l0-1.1c1.9,0.8,12.3,3.8,20.7,5.7
					C95.4,353.8,88.7,352.5,86.9,350.9L86.9,350.9z M119.7,355.8c-3.1-0.2-6-0.4-8.7-0.6c-9.3-2-23.7-6.1-24.4-6.6c0,0,0,0,0,0
					c0.3-6.2,0.5-12.2,0.9-17.9c7.3,3.7,35.1,4.3,50.2,2.7c-6.9,4-12.7,9.7-12.9,15.5c-0.1,3.8,2.1,7.2,6.5,10.2l-0.6-0.2
					C126,357.3,122.3,356,119.7,355.8L119.7,355.8z M139.8,355.5c-1.7-1.6-2.5-3.3-2.5-5.2v-0.2c0-2.1,0.6-4.2,1.7-6.2
					c1.4,2.6,6.9,11.6,18.2,15.1c8.5,2.7,17.7,4.4,23,5.3C164.5,364.4,146.4,361.7,139.8,355.5L139.8,355.5z M215.9,300.1
					c0,0.4,0.3,0.7,0.7,0.7c5.5,0.4,12.1,2.5,18.1,5.9c5.5,3.1,8.8,6.1,9,7.4c0.3,1.7,0.7,8.9,0.6,16.4c-0.1,8.9-0.9,15-2.1,16.8
					c-11.8,16.4-42.6,16.6-54.3,16.7c-1.2,0-2.3,0-3.1,0h-0.1c-0.6,0.1-1.2,0.2-1.8,0.2c-4.4-0.7-15.5-2.5-25.6-5.7
					c-11.5-3.6-17-13.1-18-15.1c4.9-8,17.8-14.3,30.7-17.1c15.1-3.2,27.6-6.9,29.2-7.4l2.1,0.8c0.1,0,0.2,0,0.4,0
					c2.4-0.9,8-2.8,9.2-7.5c0.7-3,2.9-17.8,4-26.2C215.4,292.9,215.9,300.1,215.9,300.1z M214.4,279.9c0,0,0,0.1,0,0.1v0.1l0.1,1.1
					c-0.8,5.5-3.8,27.2-4.7,30.8c-1,4-6,5.9-8.3,6.7l-2.1-0.8c-0.1,0-0.2,0-0.3,0c-0.1,0-13.2,4-29.3,7.5
					c-8.6,1.8-16.9,5.2-22.9,9.3c-7,4.8-10.7,10.2-10.6,15.7c0,2.2,1,4.2,2.8,5.9c2.4,2.3,7.8,5.5,19.8,7.5
					c4.8,0.8,9.6,1.3,14.4,1.5c-10.3,0.7-18.7,0.3-25.7-1.2c-5.2-1.2-10-2.7-14-4.1c-5.6-3.2-8.4-6.9-8.3-11
					c0.2-6,6.5-11.8,13.7-15.7c0,0,0,0,0,0c1.9-1.1,3.9-2,6-2.8c7.1-2.7,15-5,22.7-7.2c8.2-2.4,16-4.6,21.1-7
					c4.6-2.1,7.6-4.8,9.5-8.3c1.7-3.2,2.4-6.9,3.1-11.3c1.3-8.1,14.5-101.4,15.5-109c3.8-0.1,7.1-0.4,9.9-0.7
					C225.9,194.3,217.8,257.5,214.4,279.9z M239.5,70.7c14.6,6.1,24,14,29.6,24.6c5,9.5,7.2,21.8,7.2,39.9v0.6
					c-0.3,9.8-3,18.6-8.1,26c-4.1,5.9-9.7,11-16.7,15.1c-11.9,7-23.9,8.7-24,8.7c-0.2,0-0.4,0.1-0.5,0.3c-5.6,0.5-13.9,1.3-23.3,0.2
					c-11.2-1.3-21.6-4.7-31.6-10.6c-11.7-6.8-17.5-16.9-20.2-24.2c-2.7-7.2-3.2-13.1-3.3-14.2c4-4.9,9.8-9.7,17.4-14.1
					c1.2-0.7,2.5-1.4,3.9-2.1c-1.5,2-2.8,4.2-3.7,6.5c-2.1,5-3.8,13.3-0.2,24.2c2.7,8.4,10,15.9,20.4,20.9
					c14.2,6.8,31.3,7.9,44.8,2.9c12.1-4.6,20.5-10.3,25.5-17.5c3.7-5.3,5.5-11.3,5.5-18.2c0-3.5-0.4-6.9-1.2-10.3
					c-2.4-10.8-9.6-17.6-15.2-21.3c-3.5-2.3-7.2-4.2-11.2-5.5c0.2-0.5,0.3-1.1,0.4-1.7c0.3-2,0.7-13.3,1.1-31.6
					c0.9,0.3,1.6,0.5,2.1,0.6c0,0,0.1,0.1,0.2,0.1c0,0,0,0,0.1,0c0.2,0.1,0.4,0.1,0.6,0.2c0,0,0,0.1,0,0.1
					C239.1,70.4,239.3,70.6,239.5,70.7L239.5,70.7z M173.3,177.3c-5.5-0.8-19.9-3.9-26.9-14.3c-3.4-5-4.5-10.2-3.4-15.4
					c0.7-3.2,2.2-6.3,4.6-9.5c0.5,4.6,1.6,9,3.2,13.3c2.8,7.5,8.7,17.8,20.7,24.8C172.2,176.6,172.8,177,173.3,177.3L173.3,177.3z
					 M171.1,124.4l5.9-1.8c0.9,0.5,7.4,3.7,24.1,6.5c1.1,1.6,1.3,2.2,1.2,2.5c0,0,0,0,0,0C193.5,130.4,178.1,127.7,171.1,124.4z
					 M177.4,122.2l3-5.8c3.4-1.2,6.9-2.3,10.4-3.2c1.1,1.9,6.1,10.3,8.6,13.6c0.5,0.7,0.9,1.2,1.3,1.7
					C185.1,125.9,178.6,122.8,177.4,122.2L177.4,122.2z M176.8,122.1l-6,1.9c0.9-2.1,2.7-4.3,3.5-5.2c1.7-0.7,3.5-1.4,5.3-2
					L176.8,122.1z M170.2,124.3C170.2,124.3,170.2,124.3,170.2,124.3L170.2,124.3c0,0.1,0,0.1,0,0.1c0,0,0,0,0,0v0l0,0.1l0,0
					c0,0,0,0,0.1,0l0,0l0,0c6.8,3.5,23,6.2,32,7.6c0,0,0.1,0,0.1,0c0.2-0.1,0.3-0.2,0.4-0.4c0-0.1,0-0.1,0-0.2
					c0-0.6-0.5-1.8-3.1-5.1c-2.4-3.2-7.2-11.3-8.5-13.4c1.2-0.3,2.3-0.6,3.5-0.9c1.6,1.8,9,10.6,10.3,13.8c0.3,0.7,0.5,1.5,0.7,2.1
					l0,0c0.1,0.4,0.2,0.7,0.3,1c0.6,2,1,3.4,2.5,3.1c0.5-0.1,1.2-0.2,2-0.4c2.9-0.5,4.2-0.8,4.2-1.5c0-0.3-0.2-0.9-0.5-1.9
					c-0.5-1.5-1.2-3.6-1-4.7c0.2-1.6,0.6-13.1,0.7-15.6c1.1-0.2,2.2-0.4,3.2-0.5c0,3.2-0.2,18.2,0,19.9c0.1,0.9,0.2,1.4,0.6,1.6
					c0.5,0.2,1.1-0.1,2.8-0.9c2.1-1,7.5-5.3,11.9-8.8c1.3-1,2.5-2,3.4-2.7c4.1-3.2,8.2-6.9,8.2-6.9c0,0,0,0,0,0c0,0,0,0,0,0
					c0,0,0,0,0,0c0,0,0,0,0,0v0l0,0c0,0,0-0.1,0-0.1l0,0l0,0c-0.1-0.1-2-2.8-10.1-5.8c0.1-0.1,0.1-0.2,0.2-0.3
					c3.9,1.3,7.6,3.1,11.1,5.4c5.4,3.7,12.4,10.2,14.8,20.7c2.5,11.1,1.1,20.1-4.2,27.7c-4.9,7-13.1,12.6-25,17.1
					c-13.2,5-30.1,3.9-44-2.8c-10.1-4.9-17.2-12.1-19.8-20.3c-3.4-10.6-1.8-18.6,0.2-23.4c2-4.9,4.7-7.7,5.1-8
					c0.3-0.1,0.7-0.3,1-0.4C172.3,120.4,170.8,122.4,170.2,124.3L170.2,124.3z M235.5,116.3c-1,0.7-2.2,1.7-3.4,2.7
					c-4.3,3.4-9.7,7.7-11.8,8.7c-0.6,0.3-1.2,0.6-1.9,0.8c4.6-4.1,19.9-17.5,20.9-18.4c1.3-0.2,2.5-0.3,3.8-0.3
					C242,110.9,238.8,113.7,235.5,116.3L235.5,116.3z M239.3,109.6c-2.7-2.2-6-3.7-7.6-4.4c0.7-0.2,1.3-0.6,1.8-1.1
					c6.1,2.2,8.7,4.3,9.6,5.2C241.9,109.3,240.6,109.4,239.3,109.6L239.3,109.6z M238.9,109.9c-2.1,1.8-16.9,14.8-21,18.5
					c-0.1-0.3-0.1-0.6-0.2-1c-0.2-1.6,0-17,0-19.9c5.2-0.9,9-1.3,10.2-1.5c1.1-0.1,2.1-0.3,3.1-0.6
					C232.2,106,235.9,107.5,238.9,109.9L238.9,109.9z M206.4,128c0.2-0.4,1.1-2,2.9-2.4c1.8-0.4,3.6,0.8,4,1.1
					c0.2,0.7,0.4,1.3,0.6,1.9c0.3,0.8,0.5,1.5,0.5,1.7c-0.1,0.4-2.5,0.8-3.8,1c-0.8,0.1-1.5,0.3-2,0.4c-1,0.2-1.3-0.7-1.9-2.7
					C206.6,128.6,206.5,128.3,206.4,128L206.4,128z M209.1,125.1c-1.6,0.4-2.5,1.5-3,2.2c-0.2-0.5-0.4-1-0.6-1.6
					c-0.2-0.4-0.4-0.8-0.6-1.1l7.3-1.6c0.1,0,0.1-0.1,0.2-0.1c0,0,0-0.1,0-0.1c0,0,0,0,0-0.1L209,109c1.5-0.3,3-0.6,4.4-0.8
					c-0.1,2.7-0.5,13.8-0.7,15.4c-0.1,0.6,0,1.4,0.3,2.3C212.2,125.5,210.7,124.8,209.1,125.1L209.1,125.1z M212,122.6l-7.2,1.6
					l-4.4-13.3c2.8-0.6,5.6-1.2,8.2-1.7L212,122.6z M203.7,122.6c-2.6-3.8-6.9-8.9-8.4-10.6c1.5-0.4,3-0.7,4.5-1.1L203.7,122.6z
					 M239.2,69.4C239.2,69.5,239.2,69.5,239.2,69.4c-0.2,0-0.4,0-0.6-0.1c0.2-2.8,1.6-28.8,1.8-46.1c2,2.7,6.9,10.4,6.9,22.1
					C247.3,60,239.3,69.3,239.2,69.4L239.2,69.4z M239.4,21.8c0,0.2,0.1,0.4,0.2,0.5c0,0,0.1,0.1,0.3,0.4
					c-0.2,17.1-1.6,43.3-1.8,46.6c-0.5-0.2-1.2-0.4-2-0.6c0.1-6.6,0.3-14.1,0.4-22.4c0.2-12.7,0.3-27,0.3-40.8
					c0-20.3-0.3-39.6-1-51.7c-1.3-21.7-3.7-64.4-4.5-87.5l0-0.6c2.1,26.3,5.1,63.8,5.5,73.5c-0.2,0.2-0.2,0.4-0.2,0.6
					C237.3-47.9,239.4,21.1,239.4,21.8L239.4,21.8z M247.5-151.6c14.2,16.7,12.9,35.4,11.6,51.8l-0.2,2.8c-1.3,18-12,29.1-21.1,35.3
					c-0.9-16.7-7.6-98.8-7.7-99.7l0,0c-0.1-1.3-0.1-2.2-0.2-2.8C232.3-163.4,239.7-160.7,247.5-151.6L247.5-151.6z M223.2-175.7
					c0.4,0.2,0.7,0.3,1.1,0.5c1.6,0.6,3.5,6.4,4.4,10.4c0,0.2,0.1,0.3,0.3,0.5c0.1,2.1,0.6,10.5,1.3,30.7
					c0.8,23.1,3.2,65.8,4.5,87.5c1.2,20.4,1.2,61.1,0.7,92.5c-0.5,35.6-1.2,52.3-1.6,54.4c-0.1,0.7-0.2,1.3-0.5,1.9l0,0
					c-0.6,1.2-1.9,2-5.7,2.5c-4.3,0.5-42.5,5.3-62.2,16.9c-13.4,7.8-21.5,16.6-23.5,25.5c-1.2,5.5-0.1,11,3.5,16.2
					c4.7,6.9,12.6,10.6,18.4,12.5c3.7,1.2,7.6,2,11.5,2.5c0.1,0,0.2,0,0.3-0.1c8.7,4.5,18.2,7.4,27.9,8.5c4.3,0.5,8.5,0.6,12.8,0.5
					c-0.8,5.8-7.6,53.9-12,84.4c0,0-0.1,0-0.1,0c-7.7,3.7-25.9,5.2-28,5.4c0.7-4.1,8.4-50.1,10.4-63.9c1.9-13.3,3.5-23.4,3.8-24.9
					c0.1,0,0.2-0.1,0.2-0.2l0,0c0-0.1-0.1-0.2-0.2-0.3c-0.3,0-30.3-2.7-46.6-14.7c-9-6.6-14.2-14.9-14.5-23.2
					c-0.3-7.6,3.6-15.1,11.1-21.5c3-2.6,6.2-4.9,9.6-7.1c0,0,0,0,0.1,0c15.9-10.1,34.7-15.1,54-19.6c1.1-0.3,2.1-0.5,3.1-0.7
					c9.9-2.3,14.8-3.4,17.4-5.3c2.7-1.9,2.8-4.6,3.2-9.9l0.1-1.6c0.1-1.5,0.3-3.4,0.5-5.9c1.5-19,5-63.5,5-105.1
					c0-4.8-0.3-8.3-0.7-13.7c-0.5-6.8-1.3-16.1-2.1-34.2c-0.5-11.9-1.2-24.4-2-36.6c-1.3-21.6-2.4-40.3-1.7-47.7
					c0.1-0.5,0.1-1,0.1-1.4c0-4.8-2.8-12.8-6-16.1C221.9-176.3,222.5-176.1,223.2-175.7L223.2-175.7z M220.2-176.7
					c3.4,2.8,7.1,12.8,6.3,17.7c-0.7,7.4,0.4,26.1,1.7,47.8c0.7,12.2,1.5,24.7,2,36.6c0.8,18.1,1.5,27.4,2.1,34.2
					c0.4,5.4,0.7,8.9,0.7,13.7c0,41.6-3.5,86-5,105c-0.2,2.5-0.3,4.4-0.5,5.9c0,0.6-0.1,1.1-0.1,1.6c-0.4,5.1-0.5,7.7-3,9.5
					c-2.5,1.8-7.4,3-17.2,5.2c-1,0.2-2,0.5-3.1,0.7c-19.3,4.5-38,9.4-53.9,19.4c-2.3-13.7-0.5-31.5-0.1-34.6c0,0,0.1-0.1,0.1-0.1
					c0.1-0.1,0.1-0.1,0.2-0.2c0.7-0.1,2.1-0.5,2.5-1.6c0.8-2.1,6.3-29.1,7.8-86.5c0.2-8.6,0.3-18.1,0.3-27.9
					c0-56.5-3.2-127-3.7-136.8c-0.3-5.4-2.5-7.9-4-9c4.9-0.6,18.7-2.3,22.5-2.3c0.6,0,1.1,0,1.6,0c2.8,0,3,0,5.3,1.3
					c0.1,0,0.2,0.1,0.3,0.1c0.7,1.2,2.7,5.1,3.2,12.5c0.8,10.5,4.9,124,4.7,163c-0.1,29.9-1.7,56.9-2.5,69.9
					c-0.3,4.3-0.4,7.2-0.4,8.2c0,1,0.5,1.5,0.9,1.7c2,1.2,7.5-0.5,16.3-5.1c7.1-3.7,11-10.1,13.3-22.2c2.5-13,9.4-56.7,9.9-82.2
					c0.1-3.6,0.1-7.2,0.1-11c0-21.8-1.2-48.1-3.8-83.3c-2.7-36.6-5.2-42.8-15-50.2C215.1-177,218.1-177.1,220.2-176.7L220.2-176.7z"
					/>
				<path id="Shape_1_" class="st0" d="M26.9,295.6c0.1,0.1,1.3,2,4.5,5.2c2.9,2.9,7.9,7.5,15.6,12.7c1.8,1.1,3.4,2,4.8,2.9
					c8.2,5,10.7,6.5,13.5,5.5c3.1-1,6.4-4.8,6.5-5c0,0,0.1-0.1,0.1-0.2v-0.1c0-0.1-0.1-0.1-0.2-0.2c-0.1-0.1-14.2-6-27.2-12.4
					s-17.3-8.9-17.3-8.9c-0.1-0.1-0.2,0-0.3,0C26.8,295.3,26.8,295.5,26.9,295.6L26.9,295.6z M44.3,304.6
					c11.8,5.8,24.7,11.3,26.9,12.3c-0.8,0.9-3.5,3.7-6.1,4.6c-2.5,0.8-5-0.6-13-5.5c-1.4-0.8-3-1.8-4.8-2.9
					c-11.7-7.8-17.4-14.4-19.2-16.8C29.9,297.3,34.8,299.9,44.3,304.6L44.3,304.6z"/>
				<path id="Shape_2_" class="st0" d="M69.4,35.5c0.1,0,0.1-0.1,0.1-0.1c-1.6-37.6,1.4-68.7,1.4-69v0c0-0.1,0-0.1-0.1-0.1
					c-0.7-0.1-1.5-0.1-2.2,0.1c-1.2,0.3-2.9,1-4.6,2.9C62.2-28.7,55.1-19.5,47.8-8C41.2,2.5,32.5,17.8,29,31.3
					c-4.8,18.2-2.7,22.6-2.6,22.8c0,0,0.1,0.1,0.1,0.1h2.1c0,0,0,0,0.1,0C28.9,54,52.4,39.8,69.4,35.5z M26.6,53.9
					c-0.1-0.3-0.5-1.5-0.5-4.4c0-3.1,0.6-8.7,3.1-18.1c6.4-24.8,30.7-57,34.9-62c2.7-3.2,5.8-3,6.4-2.9c-0.2,1.7-1.8,20.6-1.8,46.3
					c0,7.1,0.1,14.6,0.5,22.5c-16.7,4.3-39.6,18.1-40.6,18.7H26.6z"/>
				<path id="Shape_3_" class="st0" d="M49.7,114.5c0-0.1,0-0.1-0.1-0.1c-6.6-3-7.9-7.6-7.9-14.6c0-4.4,0.3-8.1,0.5-10.5
					c0.1-1.1,0.2-1.9,0.2-2.3c0-0.5,1.1-2.6,3.6-4.8c7.1-6,16.7-5.1,21.7-4.1c0,0,0.1,0,0.1,0c0,0,0-0.1,0-0.1l0,0
					C67.5,68.5,67,62.3,67,62.3c0,0,0-0.1-0.1-0.1c0,0-0.1,0-0.1,0c-0.3,0.1-25.3,8.6-30.6,12.2c0,0-0.1,0.1-0.1,0.1
					c0,15.7-0.4,39.1-1,40.1c-0.6,0.3-3,0.6-4.2,0.7c0,0-0.1,0-0.1,0.1c0,0,0,0.1,0,0.1c0,0.2,1.1,3.8,3.2,3.8
					c1.9,0,8.3-0.8,15.6-4.6C49.6,114.6,49.7,114.5,49.7,114.5z M31.1,115.5c0.7-0.1,3.5-0.4,4.1-0.7c0.2-0.1,0.5-0.3,0.8-15.2
					c0.2-7.5,0.3-17.3,0.3-25c5.3-3.5,28.3-11.4,30.4-12.1c0.1,1,0.5,6.8,0.8,15.4c-4.9-1-9.5-1-13.5,0c-3,0.7-5.8,2.1-8.3,4.1
					c-2.5,2.1-3.7,4.3-3.7,5c0,0.4-0.1,1.2-0.2,2.3c-0.2,2.4-0.5,6.1-0.5,10.5c0,7,1.3,11.7,7.8,14.7c-7.1,3.6-13.4,4.4-15.2,4.4
					C32.3,118.9,31.4,116.1,31.1,115.5L31.1,115.5z"/>
				<path id="Shape_4_" class="st0" d="M56.4,132.1c0,0,0.7-4.6,2.4-5.6c0,0,0.1-0.1,0.1-0.1v0c0-0.1-0.1-0.1-0.1-0.1
					c-10.1,0.7-18.7,2-18.8,2c-0.1,0-0.1,0.1-0.1,0.1c0,0.1,0,0.1,0.1,0.1l16.3,3.7C56.3,132.2,56.3,132.2,56.4,132.1
					C56.3,132.1,56.4,132.1,56.4,132.1z M40.7,128.4c2.2-0.3,9.3-1.3,17.6-1.9c-1.4,1.3-2,4.6-2.1,5.4L40.7,128.4z"/>
				<path id="Shape_5_" class="st0" d="M109.2,256.8c-0.2,0.5-0.3,1-0.5,1.5c-1.1,0-2.2,0.2-3.2,0.4c-2.3,0.6-3.6,1.9-3.7,3.5
					c-0.1,3.5,3.9,5.2,4.9,5.6c-0.2,1.5-0.3,2.8-0.2,3.5c0,0,0,0,0,0.1c0.7,1.8,3,1.8,4,1.8c0.6,0,2.2-0.3,2.4-0.8
					c0.1-0.2,0.2-1.7,0.4-3.6c1-0.1,4.9-0.8,5.4-4.1c0-0.2,0-0.4,0.1-0.6c0-3-3.5-4.3-4.5-4.6c0-0.5,0.1-0.9,0.1-1
					c0-0.9-2.1-2-3.5-2.2C109.7,256,109.3,256.5,109.2,256.8z M102.1,262.3c0.1-3.3,5.2-3.7,6.6-3.7c-0.8,3-1.5,6-1.9,9
					C105.7,267.2,102,265.5,102.1,262.3z M118.5,264.7c-0.5,3.1-4,3.7-5.1,3.9c0.3-2.9,0.7-6.8,0.9-8.8
					C115.4,260.1,119,261.5,118.5,264.7L118.5,264.7z M110.8,256.7c1.4,0.2,3.1,1.2,3.1,1.7c0,1.2-1.3,13-1.5,13.8
					c-0.2,0.2-1.8,0.6-3.3,0.4c-0.7-0.1-1.7-0.5-2-1.3c-0.3-2.2,1.2-10.2,2.6-14.3C109.8,256.7,110.2,256.6,110.8,256.7L110.8,256.7
					z"/>
				<path id="Shape_6_" class="st0" d="M111.8,324.1c0-0.1,0-0.2,0-0.3c0-3.2-3.6-4.1-4.6-4.3c-0.1-1.4-2.3-2.3-3.7-2.3
					c-0.6,0-2.6,0-2.8,1.5c-3.7,0-5.8,1.2-5.9,3.4c-0.1,4.1,3.9,5,4.8,5.1c-0.1,1.2-0.1,2.1,0.1,2.5c0.3,0.9,2,1.3,3,1.4
					c0.8,0.1,3.1,0.4,3.5-0.2c0.2-0.2,0.3-1.2,0.4-2.5C107.7,328.2,111.6,327.5,111.8,324.1z M111.6,324.1c-0.2,3.2-3.8,3.9-4.9,4
					c0.3-2.9,0.5-7.3,0.6-8.3C108.3,320,111.8,320.9,111.6,324.1L111.6,324.1z M95.1,322.2V322c0.1-2,2.1-3.1,5.5-3.1
					c-0.1,0.7-0.2,1.5-0.3,2.4c-0.3,1.9-0.5,3.9-0.7,5.5C98.8,326.7,95.1,325.9,95.1,322.2L95.1,322.2z M101.6,330.2
					c-0.8-0.2-1.3-0.5-1.4-0.8c-0.3-0.9,0.2-4.9,0.7-8.1c0.1-0.9,0.2-1.8,0.3-2.6c0.1-0.5,0.4-1.1,2.3-1.1c1.2,0,3.1,0.8,3.1,1.8
					c0,1.4-0.6,10.1-0.9,10.9C105.5,330.7,103.3,330.7,101.6,330.2L101.6,330.2z"/>
				<path id="Shape_7_" class="st0" d="M201.3,141.7c3.7-0.6,4.4-1.7,4.5-4.8l0.1-3l0,0c0-0.1,0-0.2-0.1-0.2
					c-0.1-0.1-0.1-0.1-0.2-0.1c-0.1,0-5.2,0.6-16.6,0c-11.4-0.6-23.1-1.5-23.2-1.5c-0.1,0-0.3,0.1-0.3,0.2c0,0.1-1.5,7.6,0,14.5
					c0,0.1,0.1,0.2,0.3,0.2c4.2,0.1,15.6-1.9,24.8-3.6C195,142.8,198.8,142.1,201.3,141.7z M205.2,136.9c-0.1,2.9-0.6,3.8-4,4.3
					c-0.2,0-0.4,0.1-0.5,0.1c-1.3-0.3-2.3-1.4-2.6-2.8c-0.4-2.1,0.8-3.7,1.1-4c3.4,0,5.5-0.2,6.2-0.2L205.2,136.9z M166,132.7
					c0.4,0,1.3,0.1,2.6,0.2v4.8l-3,3.3c-0.1,0.1-0.1,0.2,0,0.3c0,0.1,0.1,0.2,0.2,0.2c0.8,0,20.7,0.7,26.5-0.6
					c0.1,0,0.2-0.1,0.2-0.3c0,0,0,0,0-0.1c0-0.1-0.1-0.1-0.1-0.2c-0.1,0-0.1-0.1-0.2,0c-5.2,1.2-22.4,0.7-25.8,0.6l2.6-2.9
					c1.7,0.3,16.8,2.6,22.1,0c2.2-0.8,3.8-1.6,4.5-1.9v3.5c0,0.2,0.1,0.3,0.3,0.3s0.3-0.1,0.3-0.3v-3.9c0-0.1,0-0.2-0.1-0.2
					c-0.1-0.1-0.2-0.1-0.3,0c0,0-2,1-4.9,2c0,0,0,0,0,0c-5,2.5-19.7,0.3-21.7,0v-4.6c4.3,0.3,12.1,0.8,19.8,1.2
					c3.9,0.2,7,0.3,9.5,0.3c-0.9,1.2-1.2,2.7-0.9,4.1c0.2,1.2,1,2.3,2.1,2.9c-2.4,0.4-5.6,1-9.2,1.6c-9,1.6-20.2,3.6-24.5,3.6
					C164.7,140.5,165.8,134,166,132.7L166,132.7z"/>
				<path id="Shape_8_" class="st0" d="M200.8,144.6c0.1-0.1,0-0.2,0-0.3c-0.1-0.1-0.2-0.1-0.3-0.1c-9.2,1.9-27.2,4.5-33.5,5
					c-0.1,0-0.2,0.1-0.2,0.1s-0.1,0.2,0,0.2c0,0.1,3.9,12.4,14.2,18.6c0.1,0.1,0.2,0,0.3,0C189.9,159.1,198.6,148.5,200.8,144.6z
					 M183.8,164.7c-8.5-5-11.8-13.7-12.4-15.4c7.8-0.9,21-2.9,28.7-4.4C197.8,148.6,191,156.9,183.8,164.7L183.8,164.7z
					 M167.5,149.6c0.9-0.1,2.1-0.2,3.4-0.3c0.5,1.5,3.9,10.5,12.6,15.8c-0.8,0.8-1.5,1.7-2.3,2.5
					C172.1,161.9,168.2,151.6,167.5,149.6L167.5,149.6z"/>
				<path id="Shape_9_" class="st0" d="M200,175c0-0.1,4.3-9.8,8.1-17.8c0.9-2,1.7-3.6,2.5-5c1.4-2.9,2.4-4.7,2.4-6.1
					c0-0.7-0.3-1.4-1-1.8c-2.5-1.8-4.7-1.2-5.9,0s-1.6,2.2-1.7,2.3c-1.9,4-12.5,22.3-14.4,25.2c0,0.1-0.1,0.1,0,0.2
					c0,0.1,0.1,0.1,0.1,0.2c4.6,2.1,9.6,2.9,9.7,3C199.8,175.2,199.9,175.1,200,175z M207.5,157c-2.3,4.9-4.7,10.4-6.3,14
					c-3.9-0.2-7.7-1.9-8.7-2.3c3.6-6.1,10.3-17.7,12.1-21.4c0.5,0.6,1.7,2,3,2.3c1.4,0.4,2.9,0,3.7-0.2c-0.4,0.8-0.8,1.6-1.3,2.6
					C209.3,153.4,208.4,155,207.5,157z M208.6,143.7c1-0.1,2,0.3,3,1c1.1,0.8,0.9,1.9,0,4c-0.4,0.2-2.2,0.8-3.8,0.4
					c-1.3-0.3-2.6-1.9-2.9-2.3c0.4-0.8,0.9-1.4,1.5-2C206.9,144.1,207.7,143.7,208.6,143.7L208.6,143.7z M190.5,171.9
					c0.4-0.6,1-1.5,1.7-2.8c1,0.4,4.8,2.1,8.8,2.4l-1.4,3.1C196.4,174,193.4,173.1,190.5,171.9L190.5,171.9z"/>
				<path id="Shape_10_" class="st0" d="M220.1,137.2c1,0.8,2,1.1,2.8,1s2-0.5,3.6-0.9c2.4-0.6,6-1.6,11.2-2.8
					c8.7-1.9,20.7-5.6,20.9-5.6c0.1,0,0.2-0.1,0.2-0.3c0,0,0,0,0-0.1c0-0.1-0.2-0.2-0.3-0.2c-0.2,0-18.2,3.9-24.6,4.2
					c2-1.1,8.5-3.8,12.5-5.1c3.7-1.2,9.2-4.5,9.2-4.6c0.1-0.1,0.1-0.2,0.1-0.3c0-0.1-0.1-0.2-0.2-0.2l-3.3-0.7l-3.3-5.1l0.6-0.9
					c0.1-0.1,0.1-0.2,0-0.3c-0.1-0.1-0.2-0.1-0.3,0c-0.2,0.1-24.8,14.4-26.4,15.2c-0.5,0.2-1.1,0.5-1.6,0.6
					c-1.6,0.5-3.4,1.2-3.3,2.6C217.9,134.7,218.9,136.2,220.1,137.2z M224.8,129.9l3.4,4.1c-0.8,0.2-1.6,0.4-2.3,0.7
					c0.2-2.6-1-4-1.7-4.5L224.8,129.9z M221.3,131.6c0.6-0.2,1.1-0.4,1.7-0.7c0.1-0.1,0.3-0.2,0.7-0.4c0.4,0.3,2,1.5,1.6,4.6
					c0,0.1,0,0.2,0.1,0.3c0.1,0.1,0.2,0.1,0.3,0c2.3-0.9,3.1-0.9,3.1-0.9c0.1,0,0.2-0.1,0.2-0.2c0,0,0-0.1,0-0.1
					c0-0.1,0-0.1-0.1-0.2l-3.7-4.4c5.6-3.2,19.5-11.2,23.3-13.4l-0.1,0.2c-0.1,0.1-0.1,0.2,0,0.3l3.4,5.3c0,0.1,0.1,0.1,0.2,0.1
					l2.8,0.6c-1.5,0.9-5.6,3.2-8.5,4.2c-1.8,0.6-5.1,1.8-8,3c-5.3,2.2-5.4,2.6-5.5,2.8v0.1c0,0.1,0,0.1,0.1,0.2
					c0,0.1,0.1,0.1,0.2,0.1c3.6,0.1,12.7-1.6,19.1-2.9c-4.2,1.2-9.8,2.7-14.5,3.7c-5.3,1.2-8.9,2.1-11.3,2.8
					c-1.6,0.4-2.7,0.7-3.6,0.9c-0.7,0.1-1.6-0.2-2.4-0.8c-1.1-0.9-2-2.2-2-3.2C218.3,132.6,219.9,132,221.3,131.6z"/>
				<path id="Shape_11_" class="st0" d="M236,136.8c-5.2,1.1-9.9,1.9-9.9,1.9c-0.1,0-0.2,0.1-0.2,0.2c0,0.1,0,0.2,0.1,0.3
					c0.1,0.1,12.9,8.1,30.1,13.9c0.1,0,0.2,0,0.3-0.1c0.1-0.1,0.1-0.2,0-0.3c-0.9-1.9-1.6-3-2-3.5c0.5-1,2.4-5.6,2.4-12.2
					c0-1.6-0.1-3.2-0.3-4.8l2.3-1.6c0.1-0.1,0.1-0.2,0.1-0.3c-0.1-0.1-0.2-0.2-0.3-0.1C258.3,130.2,241.2,135.7,236,136.8z
					 M256,131.9c-0.1,0-0.1,0.1-0.1,0.2v0c1.5,10-2,17-2.1,17.1c0,0.1,0,0.2,0,0.3c0,0.1,0.1,0.1,0.1,0.1c0.1,0,0.5,0.4,1.7,2.8
					c-14.7-5.1-26-11.7-28.7-13.3c1.5-0.3,5.2-0.9,9.2-1.8c4.2-0.9,16.3-4.7,20.8-6.1L256,131.9z"/>
				<path id="Shape_12_" class="st0" d="M249.6,158.5c-1.8-1.1-22.1-13.6-24.4-15.8c-3-2.8-5.3-2.5-5.8-2.4c0,0-0.1,0-0.1,0
					c-0.1,0.1-2,1.5-2.4,3.1c-0.3,1.1,1.7,3.2,5.1,6.4c1,1,2.1,2.1,3,3c1,1,2,2.4,3.1,3.9c2.4,3.1,5.6,7.4,10.8,12.4
					c0.1,0.1,0.2,0.1,0.3,0c11.1-5.7,14.7-12.6,14.7-12.7c0,0,0-0.1,0-0.1c0-0.1,0-0.2-0.1-0.2l-0.6-0.5c-0.1-0.1-0.3-0.1-0.3,0
					C251.9,156.8,250.8,157.7,249.6,158.5z M247.5,157.8l-4.8,3.9c-0.1,0.1-0.1,0.1-0.1,0.2v3.3c-8.6-5.4-17.5-15.7-18.7-17.2
					l3.3-3.2C232.2,148.3,243,155,247.5,157.8z M217.4,143.5c0.3-1.3,1.9-2.6,2.1-2.8c1.1-0.2,3.1,0.2,5.2,2.2
					c-0.1,0.5-0.6,2.7-1.9,3.1c-1.5,0.6-3.8,0-3.9,0c0,0,0,0-0.1,0C217.9,144.9,217.2,144,217.4,143.5z M253.3,156.4
					c-0.7,1.1-4.5,7.1-14.3,12.2c-5.1-4.8-8.3-9.1-10.6-12.2c-1.2-1.6-2.2-2.9-3.2-4c-0.8-0.9-1.9-2-3-3c-0.9-0.9-2-1.9-2.8-2.8
					c0.8,0.1,2.4,0.3,3.5-0.1c1.3-0.5,1.9-2.4,2.1-3.2c0.4,0.3,1,0.7,1.7,1.2l-3.4,3.3c-0.1,0.1-0.1,0.2,0,0.3
					c0.1,0.1,10,11.9,19.4,17.7c0.1,0,0.2,0,0.3,0s0.1-0.1,0.1-0.2V162l4.8-3.9l1.5,0.9c0.1,0,0.2,0,0.3,0c1.3-0.7,2.4-1.7,3.3-2.8
					L253.3,156.4z"/>
				<path id="Shape_13_" class="st0" d="M215.7,149.2c-0.1,0-0.2,0.1-0.2,0.2c0,0.2-3.9,20.2-5.7,26.4c0,0.1,0,0.1,0,0.2
					c0,0.1,0.1,0.1,0.2,0.1c8.3,0.5,16.7-1.1,25.6-5c0.1,0,0.1-0.1,0.1-0.2v0c0-0.1,0-0.1-0.1-0.2c-6.5-6.3-19.7-21.2-19.8-21.4
					C215.9,149.2,215.8,149.2,215.7,149.2L215.7,149.2z M235.1,170.7c-8.6,3.7-16.7,5.3-24.7,4.8c0.2-0.9,0.5-1.9,0.8-3.2
					c0.4,0,2.3,0.1,5.7-0.3s8.8-1.4,15.8-3.9C233.6,169.2,234.4,170,235.1,170.7L235.1,170.7z M232.3,167.8
					c-6.8,2.4-12.1,3.4-15.4,3.8c-3.1,0.4-5,0.3-5.5,0.3c1.7-7.3,4.1-19.3,4.6-21.9C217.7,152,226.2,161.5,232.3,167.8z"/>
				<path id="Shape_14_" class="st0" d="M206.8,138.2c0,2.8,2.7,5,6,5s6-2.2,6-5s-2.7-5-6-5S206.8,135.4,206.8,138.2z M218.4,138.2
					c0,2.5-2.5,4.5-5.5,4.5s-5.5-2-5.5-4.5s2.5-4.5,5.5-4.5S218.4,135.7,218.4,138.2z"/>
				<path id="Shape_15_" class="st0" d="M150.8,345.2c0,4.4,4.4,8.4,12.3,11.4c7.8,2.9,18.2,4.6,29.2,4.6c11,0,21.4-1.6,29.2-4.6
					c8-3,12.3-7.1,12.3-11.4s-4.4-8.4-12.3-11.4c-7.8-2.9-18.2-4.6-29.2-4.6c-11,0-21.4,1.6-29.2,4.6
					C155.2,336.7,150.8,340.8,150.8,345.2z M221.1,334.7c7.5,2.8,11.7,6.6,11.7,10.5c0,3.9-4.1,7.6-11.7,10.5
					c-7.7,2.9-17.9,4.5-28.8,4.5c-10.9,0-21.1-1.6-28.8-4.5c-7.5-2.8-11.7-6.6-11.7-10.5c0-3.9,4.1-7.6,11.7-10.5
					c7.7-2.9,17.9-4.5,28.8-4.5C203.2,330.2,213.5,331.8,221.1,334.7L221.1,334.7z"/>
				<path id="Shape_16_" class="st0" d="M156.8,339.8c0,0.1,0.1,0.2,0.2,0.2c0.1,0,3.3,1.2,12.1,1.8c6.3,0.4,14.4,0.4,14.5,0.4
					c0.1,0,0.2-0.1,0.3-0.2v0c0-0.1-0.1-0.2-0.2-0.2c0,0-4-1.2-11.9-8.4c-0.1-0.1-0.2-0.1-0.3-0.1c-10,2.7-14.5,6.3-14.5,6.4
					C156.9,339.6,156.8,339.7,156.8,339.8L156.8,339.8z M182.3,341.6c-2.5,0-8.3-0.1-13.1-0.4c-6.8-0.5-10.3-1.3-11.5-1.6
					c1.3-0.9,5.7-3.7,13.8-5.9C177,338.7,180.6,340.8,182.3,341.6L182.3,341.6z"/>
				<path id="Shape_17_" class="st0" d="M185,344.4c0.8-0.8,0.8-1.6,0.8-1.9c0-0.1,0-0.1,0-0.2c0-0.1-0.1-0.2-0.3-0.2
					c-0.1,0-6.4,0.5-13.4,0.6c-7,0.1-16.2-0.6-16.2-0.6c-0.1,0-0.2,0-0.2,0.1c0,0.1-0.9,1.9-0.8,3.3c0,0.1,0.1,0.2,0.2,0.2
					c4.8,0.2,11.9-0.2,15.6-0.4c-3.7,0.9-7.5,1.6-11.3,2c-0.1,0-0.2,0.1-0.2,0.3l0,0c0,0.1,0.1,0.3,0.2,0.3
					C169.6,349.1,183.2,345.2,185,344.4C184.9,344.5,185,344.4,185,344.4L185,344.4z M162.3,347.6c7.2-1,11-2.4,11-2.4
					c0.1,0,0.2-0.2,0.2-0.3c0-0.1-0.1-0.2-0.3-0.2c-0.1,0-11,0.8-17.8,0.6v0c0-1,0.5-2.2,0.7-2.6c1.3,0.1,9.6,0.7,16.1,0.6
					c6.2-0.1,11.9-0.5,13.2-0.6c-0.1,0.5-0.3,0.9-0.7,1.3C183,344.7,171.7,347.8,162.3,347.6z"/>
				<path id="Shape_18_" class="st0" d="M182.8,348.6c0.1,0,0.1-0.1,0.1-0.2c0,0,0-0.1,0-0.1c-0.1-0.1-0.2-0.1-0.3-0.1
					c-10.7,2.7-25.6,2.4-26.4,2.3c0,0,0,0,0,0c-0.1,0-0.3,0.1-0.3,0.2c0,0.1,0.1,0.2,0.2,0.2h0c0.2,0,1.7,0.1,4.6,0.8
					c1.9,0.7,5.6,2.4,6.4,2.7v2.5c0,0.1,0,0.2,0.1,0.2c0.1,0,0.2,0,0.2,0C168,356.9,178.9,352.1,182.8,348.6z M167.6,354.3
					c0-0.1-0.1-0.2-0.1-0.2c0,0-4.5-2-6.6-2.8h0c-0.5-0.1-1-0.2-1.4-0.3c4.9,0,14.5-0.3,22.2-2.1c-3.9,3-12.2,6.9-14,7.7V354.3z"/>
				<path id="Shape_19_" class="st0" d="M190.3,349.8v1.7c0,0.1,0.1,0.2,0.2,0.3c0.1,0,0.2,0,0.3-0.1c0,0,0.7-1,2-4c0,0,0,0,0-0.1
					c0.1-0.3,0.1-0.6,0.1-0.9c0-1.3-0.7-2-1.4-2.3c-0.7-0.3-1.8-0.4-2.8-0.2c-1,0.2-1.7,0.6-2.1,1c-3.3,4.6-10.6,11-10.6,11.1
					c-0.1,0.1-0.1,0.2-0.1,0.3c0,0.1,0.1,0.2,0.3,0.2h6l0.1,2.1c0,0.1,0.1,0.2,0.2,0.2c0.1,0,0.2,0,0.3-0.1L190.3,349.8z
					 M182.6,356.5c0-0.1-0.1-0.3-0.3-0.3h-5.5c1.8-1.6,7.4-6.7,10.2-10.7c0.4-0.6,2.7-1.2,4.2-0.6c0.9,0.4,1.2,1.2,1,2.5
					c-0.4,1-0.9,2-1.4,3V349c0-0.1-0.1-0.2-0.2-0.3c-0.1,0-0.2,0-0.3,0.1l-7.6,9.3L182.6,356.5z"/>
				<path id="Shape_20_" class="st0" d="M173.8,333.6c0,0.1,0,0.2,0.1,0.2c0.1,0,6.6,4.6,13.2,7.3c0.1,0,0.2,0,0.2,0
					c2.2-0.8,5.2-0.8,5.2-0.8c0.1,0,0.3-0.1,0.3-0.2c0-0.2,0-0.3,0-0.5c0-1.4-0.5-2.8-1.5-3.8c-1.7-1.8-3.6-4.5-3.6-4.5
					c-0.1-0.1-0.1-0.1-0.2-0.1c-0.4,0-9.6,0.4-13.5,2.2C173.9,333.4,173.9,333.5,173.8,333.6L173.8,333.6z M192.3,339.8
					c-0.8,0-3.1,0.1-5.1,0.8c-5.6-2.4-11.2-6-12.6-7c1.2-0.5,2.7-0.8,4.4-1.1c0.6,0.7,3.3,4.2,6.7,5.3c0,0,0.1,0,0.1,0
					c2-0.2,5.4-0.1,6.2,0C192.2,338.5,192.3,339.2,192.3,339.8z M190.9,336.1c0.4,0.4,0.7,0.8,0.9,1.3c-1.1-0.1-4.1-0.2-6,0
					c-2.9-1-5.4-4-6.2-4.9c2.6-0.4,5.2-0.6,7.8-0.8C188.5,333.2,189.6,334.7,190.9,336.1L190.9,336.1z"/>
				<path id="Shape_21_" class="st0" d="M196.8,331.4l0.8,8.5c0,0.1,0.1,0.2,0.2,0.2c0,0,1.7,0.2,2.6,0.9c0.1,0.1,0.2,0.1,0.3,0
					c4.8-1.9,15.9-5.9,16-6c0.1,0,0.2-0.1,0.2-0.2l0,0c0-0.1-0.1-0.2-0.2-0.2c0,0-4.2-1.7-11.2-2.7c-7-1-8.3-0.9-8.4-0.8
					C196.9,331.2,196.8,331.3,196.8,331.4L196.8,331.4z M205.4,332.5c5.4,0.7,9.1,1.9,10.5,2.4c-2.4,0.9-11.1,4-15.3,5.7
					c-0.8-0.6-2-0.8-2.5-0.9l-0.7-8.1C198,331.7,200,331.8,205.4,332.5L205.4,332.5z"/>
				<path id="Shape_22_" class="st0" d="M203.5,345.7c-0.1,0-0.3,0.1-0.3,0.2s0,0.3,0.2,0.3c0,0,1.1,0.4,5,1.9
					c3.5,1.3,15.2,3.5,18.2,4l-2.6,1.6c-1-0.3-9-2.9-14-3.8c-3.3-0.6-6.2-2.3-8.3-3.6c-1.4-0.8-2.4-1.4-3-1.4
					c-1.1,0-2.4,0.4-2.8,1.4c-0.2,0.4-0.2,1,0.5,1.8c1.4,1.6,9.5,7.7,16.6,10.1c0.1,0,0.3,0,0.3-0.2s0-0.3-0.1-0.3
					c-3.9-2.7-6.4-4.8-7.6-6c3.1,1.6,10.3,5.2,12.3,5.7c0.1,0,0.2,0,0.2-0.1s0.1-0.2,0.1-0.2l-0.4-2l1.7-1.7
					c0.1-0.1,0.1-0.2,0.1-0.3c2.4,0.7,4.2,1.3,4.3,1.4c0.1,0,0.2,0,0.2,0l3.3-2.1c0.1-0.1,0.1-0.2,0.1-0.3s-0.1-0.2-0.2-0.2
					c-0.2,0-15-2.6-18.8-4.1c-1.6-0.6-2.7-1.1-3.5-1.4c3.1,0,10.7-0.3,22.2-2.5c0.7,1.8-1.5,5.1-1.5,5.1c-0.1,0.1-0.1,0.3,0.1,0.4
					c0.1,0.1,0.3,0.1,0.4-0.1c0.1-0.1,1.7-2.6,1.7-4.6c0-0.4-0.1-0.9-0.3-1.3c-0.1-0.1-0.2-0.2-0.3-0.1
					C212,346.2,203.6,345.7,203.5,345.7z M217.4,354.7c-0.1,0.1-0.1,0.1-0.1,0.2v0l0.3,1.8c-3.1-1.1-13.1-6.2-13.2-6.3
					c-0.1-0.1-0.2,0-0.3,0.1c-0.1,0.1-0.1,0.2,0,0.3c0.1,0.1,2,2.4,7.1,6c-6.5-2.7-13.2-7.8-14.4-9.2c-0.4-0.5-0.5-0.9-0.4-1.3
					c0.2-0.6,1.2-1,2.3-1c0.5,0,1.5,0.6,2.8,1.4c2.2,1.3,5.1,3.1,8.5,3.7c2.8,0.5,6.5,1.5,9.4,2.4c0,0,0,0,0,0L217.4,354.7z"/>
				<path id="Shape_23_" class="st0" d="M199,342.9c-0.1,0-0.2,0.2-0.2,0.3c0,0.1,0.1,0.2,0.2,0.3c0.1,0,9.8,1.2,16,0.5
					s12.5-1.9,12.6-1.9c0.1,0,0.2-0.1,0.2-0.3v0c0-0.1-0.1-0.3-0.3-0.2c-0.2,0-15.2,1.3-19,1.1l0.2-0.6c1.5-0.3,14.6-2.5,17.2-2.6
					c0.1,0,0.2-0.1,0.2-0.2c0-0.1,0-0.2-0.1-0.3c-1.6-1.5-4-2.7-4.1-2.8c-0.1,0-0.1,0-0.2,0L199,342.9z M225.3,339
					c-3.8,0.4-16.2,2.5-16.8,2.6c-0.1,0-0.2,0.1-0.2,0.2l-0.4,1.1c0,0,0,0.1,0,0.1c0,0.1,0,0.1,0,0.1c0,0.1,0.1,0.1,0.2,0.1
					c1.8,0.2,7.6-0.1,12.4-0.5c-1.7,0.3-3.6,0.5-5.5,0.7c-4.8,0.6-11.7,0-14.5-0.3l21.4-6.3C223.1,337.4,224.2,338.1,225.3,339z"/>
				<path id="Shape_24_" class="st0" d="M207.6,356.1c0.1,0,0.2-0.1,0.2-0.2v0c0-0.1-0.1-0.2-0.2-0.2c-7.6-2.9-11.7-7.3-11.8-7.4
					c-0.1-0.1-0.2-0.1-0.3-0.1c-0.1,0-0.2,0.1-0.2,0.2c-1.4,4.9-4.5,9.4-4.6,9.4c-0.1,0.1-0.1,0.2,0,0.3c0.1,0.1,0.2,0.1,0.3,0
					l1.5-1.3C197.7,357.2,202.7,357,207.6,356.1L207.6,356.1z M195.8,348.9c1.1,1.1,4.8,4.4,10.8,6.9c-4.6,0.8-9.3,0.9-14,0.6
					c-0.1,0-0.2,0-0.2,0.1l-0.3,0.2C193.3,355,194.9,352,195.8,348.9z"/>
				<path id="Shape_25_" class="st0" d="M192.8,346.2c2.9,0,6-0.9,6-2.5s-3.1-2.5-6-2.5s-6,0.9-6,2.5
					C186.8,345.3,189.9,346.2,192.8,346.2z M192.8,341.8c3.2,0,5.5,1,5.5,1.9c0,0.9-2.2,1.9-5.5,1.9s-5.5-1-5.5-1.9
					C187.4,342.8,189.6,341.8,192.8,341.8z"/>
				<path id="Path" class="st0" d="M148,19.7c2,6.6,6.6,10.4,6.6,10.5c0.1,0,0.1,0,0.2,0c0,0,0-0.1,0-0.1c0,0,0-0.1,0-0.1
					c0,0-4.6-3.8-6.5-10.3c-1.9-6.6-0.8-27.1-0.8-27.3c0,0,0-0.1,0-0.1c0,0-0.1,0-0.1,0c-0.1,0-0.1,0.1-0.1,0.1
					C147.2-7.5,146,13,148,19.7z"/>
				<path id="Path_1_" class="st0" d="M148.8,23.3c0-0.1-0.1-0.1-0.2-0.1s-0.2,0.1-0.2,0.1c0,0.4-0.8,41.3-0.5,48.7
					c0,0.1,0.1,0.1,0.2,0.1c0.1,0,0.1,0,0.1,0c0,0,0.1-0.1,0.1-0.1C148.1,64.6,148.8,23.7,148.8,23.3L148.8,23.3z"/>
				<path id="Path_2_" class="st0" d="M147.8,76.4c0.1-0.1,0.1-0.1,0-0.2c0,0-0.1,0-0.1,0c0,0-0.1,0-0.1,0c-4.5,5.4-10.6,5.1-15,3.9
					c-3-0.9-5.9-2.2-8.5-3.9c0,0-0.1-0.1-0.1,0c0,0-0.1,0.1-0.1,0.1c0,0.1,0,0.1,0.1,0.1c2.7,1.8,5.6,3.1,8.6,4
					C138.9,82.2,144.2,80.8,147.8,76.4z"/>
				<path id="Path_3_" class="st0" d="M143.3,22.2c1.6-1.5,2.5-3.3,2.5-5.3c0-2.3,0-5.2,0-7.9c0-5.5,0-10.6,0-10.7
					c0,0,0-0.1-0.1-0.1c0,0-0.1,0-0.1,0c-0.1,0.1-8.6,5.1-11.2,8.1c0,0.1,0,0.1,0,0.2s0.1,0,0.2,0c2.3-2.7,9.6-7.1,10.9-7.9
					c0,1.7,0.1,12,0,18.4c0,2.7-2.1,6.4-7.9,7.9c-3.9,1-7.5-4.8-7.6-4.9c0,0,0-0.1-0.1-0.1c0,0-0.1,0-0.1,0c0,0-0.1,0-0.1,0.1
					c0,0,0,0.1,0,0.1c0.7,1,1.5,2,2.4,2.9c1.9,1.8,3.8,2.5,5.5,2.1C139.8,24.5,141.7,23.6,143.3,22.2z"/>
				<path id="Path_4_" class="st0" d="M140.2,56.1c0-0.1,2.3-7.8,5.7-23.7v0c0,0,0-0.1-0.1-0.1c0,0-0.1,0-0.2,0
					c-4.8,3.7-9.7,3.9-12.6,3c-3-1-3.9-5.9-3.9-6c0-0.1-0.1-0.1-0.2-0.1c0,0-0.1,0-0.1,0c0,0,0,0.1,0,0.1c0.2,0.9,0.5,1.8,0.8,2.7
					c0.8,1.9,1.9,3.1,3.3,3.5c2.9,0.9,7.7,0.7,12.6-2.8c-3.3,15.7-5.6,23.3-5.6,23.4c0,0.1,0,0.1,0.1,0.2
					C140.1,56.2,140.1,56.2,140.2,56.1z"/>
				<path id="Path_5_" class="st0" d="M146.7,44.2c0,0-0.1,0-0.1,0s-0.1,0-0.1,0.1L140.9,61c0,0,0,0.1,0,0.1c0,0,0.1,0.1,0.2,0
					c0.1,0,0.1-0.1,0.1-0.1l5.7-16.7v0C146.8,44.2,146.8,44.2,146.7,44.2L146.7,44.2z"/>
				<path id="Path_6_" class="st0" d="M144.8,62.3C144.8,62.3,144.8,62.2,144.8,62.3c0-0.1-0.1-0.1-0.2-0.1c-9.8,4-17.6,0-17.6,0
					c-0.1,0-0.1,0-0.2,0c0,0,0,0.1,0,0.1c0,0,2,1,5.2,1.5C135,64.4,139.6,64.5,144.8,62.3C144.8,62.4,144.8,62.3,144.8,62.3
					L144.8,62.3z"/>
				<path id="Path_7_" class="st0" d="M144.8,65.3C144.8,65.3,144.8,65.3,144.8,65.3c0-0.1-0.1-0.1-0.2-0.1c-9.8,3.9-17.5,0-17.6,0
					c0,0-0.1,0-0.1,0c0,0-0.1,0.1-0.1,0.1c0,0,0,0.1,0.1,0.1c0,0,2,1,5.2,1.5C135,67.4,139.6,67.5,144.8,65.3
					C144.8,65.4,144.8,65.3,144.8,65.3L144.8,65.3z"/>
				<path id="Path_8_" class="st0" d="M144.8,69.3C144.8,69.3,144.8,69.3,144.8,69.3c0-0.1-0.1-0.1-0.2-0.1c-9.8,3.9-17.5,0-17.6,0
					c0,0-0.1,0-0.1,0s-0.1,0-0.1,0.1c0,0,0,0.1,0,0.1c0,0,0,0.1,0.1,0.1c0,0,2,1,5.2,1.5C135,71.4,139.6,71.5,144.8,69.3
					C144.8,69.4,144.8,69.3,144.8,69.3L144.8,69.3z"/>
				<path id="Path_9_" class="st0" d="M144.8,71.3C144.8,71.3,144.8,71.2,144.8,71.3c0-0.1-0.1-0.1-0.2-0.1c-9.8,4-17.6,0-17.6,0
					c-0.1,0-0.1,0-0.2,0c0,0,0,0.1,0,0.1c0,0,2,1,5.2,1.5C135,73.4,139.6,73.5,144.8,71.3C144.8,71.4,144.8,71.3,144.8,71.3z"/>
				<path id="Path_10_" class="st0" d="M144.8,74.4C144.8,74.4,144.8,74.3,144.8,74.4c0.1-0.1,0.1-0.1,0.1-0.1
					c0-0.1-0.1-0.1-0.2-0.1c-9.8,3.9-17.5,0-17.6,0c0,0-0.1,0-0.1,0c0,0-0.1,0.1-0.1,0.1c0,0,0,0.1,0.1,0.1c0,0,2,1,5.2,1.5
					C135,76.4,139.6,76.5,144.8,74.4z"/>
				<path id="Path_11_" class="st0" d="M128.9-164.6C128.9-164.6,128.9-164.6,128.9-164.6c-0.1,0.1-0.1,0.1-0.1,0.2
					c0,0,0,0.1,0.1,0.1c0,0,0.1,0,0.1,0c0,0,3-1.4,10.1-3.2c1,1.8,0,7.5-0.1,7.6c0,0,0,0.1,0,0.1c0,0,0.1,0,0.1,0
					c0,0,0.1-0.1,0.1-0.1c0.3-1.6,0.5-3.3,0.5-4.9c0-1.2-0.1-2.3-0.5-2.9c0,0-0.1-0.1-0.1-0.1C132-166,128.9-164.6,128.9-164.6z"/>
				<path id="Path_12_" class="st0" d="M143-158.8c0,0,0.1,0,0.1,0c0,0,0.1,0,0.1-0.1c1.3-7,4.7-10.7,4.7-10.7c0,0,0,0,0-0.1
					c0-0.1,0-0.1-0.1-0.1c-0.1,0-0.1,0-0.2,0c0,0-3.5,3.8-4.7,10.8C142.8-158.9,142.9-158.8,143-158.8z"/>
				<path id="Path_13_" class="st0" d="M137.7-156.3c-2.9-0.7-5.9-0.7-8.8,0c-0.1,0-0.1,0.1-0.1,0.3c0,0.1,0.1,0.2,0.1,0.2
					c2.9-0.7,5.8-0.7,8.7,0c0,0,0.1,0,0.1,0c0,0,0-0.1,0.1-0.2v0C137.8-156.2,137.8-156.3,137.7-156.3L137.7-156.3z"/>
				<path id="Path_14_" class="st0" d="M143.8-156c0,0.1,0,0.1,0.1,0.1c0,0,0.1,0,0.1,0c0,0,0.1,0,0.1-0.1
					c1.8-7.1,4.7-10.7,4.7-10.7c0,0,0,0,0-0.1c0,0,0-0.1-0.1-0.1c0,0-0.1,0-0.1,0c0,0-0.1,0-0.1,0.1
					C148.6-166.7,145.7-163.2,143.8-156z"/>
				<path id="Shape_26_" class="st0" d="M181.3-50.8c4,0,6.5-0.4,6.5-2.6c0-1.9-3.1-84.4-3.2-86.5c-0.2-2.5-0.7-2.9-1.7-2.9
					c-0.2,0-19.8,0.5-21,1.2c0,0-0.1,0.1-0.1,0.1c0,0.2,0.9,18.9,0.9,28.3c0,6.2,0.6,27.9,1,43.7c0.2,8.3,0.4,14.9,0.4,15.9
					c0,1,0.2,1.8,0.7,2.2c0.6,0.6,1.4,0.6,2.2,0.6L181.3-50.8z M165-51.6c-0.4-0.4-0.6-1-0.6-2c0-1-0.2-7.6-0.4-15.9
					c-0.4-15.8-1-37.5-1-43.7c0-9.1-0.8-26.8-0.9-28.2c1.5-0.6,19.4-1.2,20.8-1.2c0.7,0,1.3,0.2,1.5,2.7c0.2,2.1,3.2,84.5,3.2,86.5
					c0,1.7-1.7,2.3-6.2,2.3h-14.3C166.3-51.1,165.5-51.1,165-51.6L165-51.6z"/>
			</g>
			
				<g id="Group-15" transform="translate(89.168915, 126.654848) rotate(-360.000000) translate(-89.168915, -126.654848) translate(0.168915, 20.154848)">
				<path id="Path-5" class="st1" d="M23.8,346.8v-174"/>
				<circle id="Oval" class="st2" cx="23.8" cy="172.8" r="4"/>
				<circle id="Oval-Copy-4" class="st2" cx="228.8" cy="192.8" r="4"/>
				<polyline id="Path-15" class="st1" points="24.8,290.8 228.8,290.8 228.8,196.8 				"/>
			</g>
		</g>
	</g>
</g>
</svg>
